<svg width="42" height="36" viewBox="0 0 42 36" fill="none" xmlns="http://www.w3.org/2000/svg">
<line x1="0.971574" y1="-0.971574" x2="21.3746" y2="-0.971574" transform="matrix(0.999984 0.00561543 -0.00411624 0.999992 6.66919 28.0182)" stroke="#F2E8D9" stroke-width="1.94315" stroke-linecap="round"/>
<line x1="1.8422" y1="11.4427" x2="7.49127" y2="26.9634" stroke="#F2E8D9" stroke-width="1.94315" stroke-linecap="round"/>
<line x1="15.6872" y1="11.4427" x2="21.2532" y2="26.7351" stroke="#F2E8D9" stroke-width="1.94315" stroke-linecap="round"/>
<line x1="25.2001" y1="11.3535" x2="28.7723" y2="21.1681" stroke="#F2E8D9" stroke-width="1.94315" stroke-linecap="round"/>
<line x1="20.3022" y1="11.4427" x2="25.8682" y2="26.7351" stroke="#F2E8D9" stroke-width="1.94315" stroke-linecap="round"/>
<line x1="11.0722" y1="11.4427" x2="16.6382" y2="26.7351" stroke="#F2E8D9" stroke-width="1.94315" stroke-linecap="round"/>
<line x1="6.45719" y1="11.4427" x2="12.0232" y2="26.7351" stroke="#F2E8D9" stroke-width="1.94315" stroke-linecap="round"/>
<line x1="28.1272" y1="26.9309" x2="32.6402" y2="1.33609" stroke="#F2E8D9" stroke-width="1.94315" stroke-linecap="round"/>
<line x1="32.6588" y1="1.29997" x2="40.4314" y2="1.29997" stroke="#F2E8D9" stroke-width="1.94315" stroke-linecap="round"/>
<path d="M12.4987 32.6332C12.4987 33.8405 11.52 34.8193 10.3127 34.8193C9.10535 34.8193 8.12663 33.8405 8.12663 32.6332C8.12663 31.4259 9.10535 30.4472 10.3127 30.4472C11.52 30.4472 12.4987 31.4259 12.4987 32.6332Z" stroke="#F2E8D9" stroke-width="1.45736"/>
<path d="M27.0724 32.6332C27.0724 33.8405 26.0937 34.8193 24.8864 34.8193C23.6791 34.8193 22.7004 33.8405 22.7004 32.6332C22.7004 31.4259 23.6791 30.4472 24.8864 30.4472C26.0937 30.4472 27.0724 31.4259 27.0724 32.6332Z" stroke="#F2E8D9" stroke-width="1.45736"/>
</svg>
