<svg width="60" height="35" viewBox="0 0 60 35" fill="none" xmlns="http://www.w3.org/2000/svg">
<g clip-path="url(#clip0_4101_18714)">
<path d="M39.9228 23.4376C35.834 23.2439 36.0912 19.2429 36.0912 19.2429V13.4911H36.036L36.0912 13.4631V13.486C37.0772 13.4341 38.0655 13.4341 39.0515 13.486C41.054 13.5676 41.1983 13.7664 41.1983 13.7664C44.1272 14.1894 44.5943 17.1175 44.5943 17.1175V18.4147C44.8568 23.2337 39.9517 23.458 39.9228 23.43V23.4376ZM33.7659 11.4091H26.2862C26.2862 11.4091 27.273 5.35403 18.7147 5.35403C18.7436 5.38206 15.5234 5.38206 15.5234 5.38206C15.5234 5.38206 15.2898 1.99776 21.7617 1.99776H37.0806C37.0806 1.99776 42.8832 1.57982 44.101 5.38206C44.1272 5.41009 40.7049 5.38206 40.7049 5.38206C40.7049 5.38206 33.8866 5.19093 33.7659 11.4091ZM15.3476 7.46667H19.2659C19.2659 7.46667 24.0555 7.04363 23.9059 11.353H21.4993C21.4993 11.353 15.261 11.6919 15.3476 7.46667ZM24.953 23.5803C24.953 23.5803 26.5487 22.115 26.2652 16.8219C26.2652 16.8474 13.143 16.8219 13.143 16.8219V18.6797C13.143 18.6797 13.0827 21.9927 15.2426 23.5803C15.2426 23.6084 7.75505 23.5803 7.75505 23.5803C7.75505 23.5803 5.55052 23.5803 4.65034 23.0706C4.65034 23.0706 2.41956 22.5074 2.39069 19.5029C2.36183 16.4983 2.39069 12.1124 2.39069 12.1124C2.39069 12.1124 2.53504 9.71947 3.14391 9.07217C3.43522 8.73323 3.86826 7.86167 5.55052 7.66035C5.55052 7.66035 6.07541 7.46667 8.56863 7.46667H12.8806C12.8806 7.46667 12.8543 10.7796 15.0589 12.087C15.0851 12.087 17.1768 13.4096 21.704 13.4096H33.6845V18.7613C33.6582 20.4645 34.1414 22.1385 35.0755 23.5803H24.953ZM20.7145 23.4121C20.7145 23.4121 15.6573 23.2159 15.6573 18.8479H23.8691C23.8691 18.8479 24.2733 23.4682 20.7041 23.4121H20.7145ZM59.9605 19.9182C59.9605 19.9182 57.5985 19.8877 57.6405 19.9182C57.6667 23.9957 52.6776 23.537 52.6776 23.537H45.4184C47.7804 21.1287 46.9012 16.6053 46.9012 16.5671C46.6834 13.0604 41.8492 11.9162 41.8492 11.9595C39.4163 11.4091 36.1069 11.3658 36.1069 11.3658C36.1935 7.22967 40.8939 7.48451 40.8939 7.48451C40.8939 7.48451 48.3342 7.40041 53.1684 7.48451C58.0026 7.5686 57.6929 11.1186 57.6929 11.1186C57.6929 11.1186 59.9972 11.1619 59.9972 11.1186C60.0418 5.37441 53.1212 5.41519 53.1212 5.41519C53.1212 5.41519 46.5942 5.45596 46.5942 5.41519C45.6809 -0.0384297 38.3692 0.00489341 38.3692 0.00489341H20.355C13.8201 0.0940881 12.9698 5.38206 12.9698 5.38206H7.45849C-0.351847 5.32599 0.00245131 11.6639 0.00245131 11.6639C0.00245131 11.6639 0.0286957 12.7597 0.00245131 19.4672C-0.0237931 26.1746 7.90465 25.6649 7.90465 25.6649H52.3706C60.8974 25.6649 59.9815 19.9182 59.9815 19.9182" fill="#F2E8D9"/>
<path d="M34.6654 33.2773C34.6864 33.099 34.7101 32.918 34.7258 32.7396C34.7678 32.3166 34.8072 31.891 34.8465 31.4654C34.8702 31.2106 34.8885 30.9557 34.9121 30.7136L35.0303 29.4547C35.0539 29.2177 35.0696 28.9807 35.1011 28.7437C35.1068 28.722 35.1179 28.7021 35.1335 28.6856C35.1491 28.6692 35.1686 28.6567 35.1903 28.6494C35.7152 28.6494 36.2401 28.6494 36.7939 28.6494C36.7939 28.7412 36.7755 28.8202 36.7624 28.9043C36.6784 29.4139 36.5944 29.9466 36.4999 30.469C36.4002 31.0755 36.3014 31.6829 36.2034 32.2911C36.1063 32.8798 36.0118 33.4659 35.9147 34.0546C35.8674 34.3375 35.8228 34.6204 35.7703 34.9007C35.7614 34.9243 35.7467 34.9454 35.7275 34.9623C35.7083 34.9791 35.6852 34.9912 35.6601 34.9975C34.9751 34.9975 34.2902 34.9975 33.5763 34.9975C33.432 33.5551 33.2876 32.1204 33.1433 30.6831H33.0934C33.0718 30.7506 33.0552 30.8196 33.0435 30.8895C33.0068 31.2335 32.9779 31.575 32.9438 31.9088C32.8966 32.3811 32.8476 32.8535 32.7968 33.3258C32.7627 33.6571 32.7339 33.9909 32.6997 34.3222C32.6787 34.5159 32.663 34.7096 32.6341 34.9007C32.6261 34.922 32.6129 34.941 32.5955 34.9562C32.5781 34.9713 32.5571 34.982 32.5344 34.9873C31.873 34.9873 31.2117 34.9873 30.5503 34.9873C30.5272 34.982 30.506 34.9709 30.4885 34.9553C30.4711 34.9397 30.458 34.92 30.4506 34.8981C30.3719 34.4751 30.3036 34.0495 30.2328 33.6239L29.9703 32.0465C29.8732 31.4425 29.7735 30.8411 29.6764 30.2371C29.6003 29.7682 29.5215 29.3018 29.4454 28.8329C29.4454 28.7768 29.4454 28.7182 29.4297 28.6545C29.4725 28.6524 29.5154 28.6524 29.5583 28.6545C30.0359 28.6545 30.511 28.6545 30.9886 28.6545C31.0936 28.6545 31.1251 28.6825 31.133 28.7845C31.1854 29.4037 31.2511 30.0205 31.3088 30.6372C31.3455 31.0296 31.3718 31.4221 31.4059 31.812C31.4479 32.2962 31.4916 32.7787 31.5371 33.2595C31.5371 33.2595 31.5371 33.2748 31.5712 33.3079C31.589 33.2678 31.6022 33.2259 31.6106 33.1831C31.6946 32.4355 31.7759 31.6888 31.8547 30.943C31.9098 30.418 31.9623 29.8905 32.0148 29.3655C32.0358 29.1591 32.0515 28.9501 32.083 28.7437C32.0909 28.7222 32.1046 28.7031 32.1226 28.6883C32.1405 28.6736 32.1622 28.6636 32.1854 28.6596C32.7916 28.6596 33.3952 28.6596 33.9988 28.6596C34.0907 28.6596 34.1143 28.7004 34.1222 28.7692C34.1511 29.0113 34.1773 29.2508 34.2035 29.4929C34.2508 29.9338 34.3007 30.3772 34.3479 30.8207C34.3846 31.1443 34.4135 31.468 34.4476 31.7891C34.5019 32.2987 34.5561 32.7991 34.6103 33.2901L34.6654 33.2773Z" fill="#F2E8D9"/>
<path d="M12.1367 34.9925V34.8294C12.1367 32.8263 12.1367 30.8207 12.1367 28.8151C12.1367 28.6826 12.1708 28.6418 12.3152 28.6418C12.9241 28.6418 13.5364 28.6418 14.1523 28.6418C14.2756 28.6418 14.315 28.6826 14.3413 28.7921C14.6667 30.1683 14.9947 31.5427 15.3254 32.9155C15.3411 32.9541 15.3595 32.9915 15.3805 33.0276C15.433 32.8187 15.4803 32.6428 15.5222 32.4695C15.8109 31.2539 16.1023 30.0409 16.3883 28.8253C16.4198 28.6928 16.4644 28.6367 16.6245 28.6392C17.215 28.6392 17.8029 28.6392 18.3908 28.6392H18.5692V34.9823H16.9368V31.0399H16.8791C16.5991 32.3565 16.3183 33.6766 16.0366 35.0001C15.6167 35.0001 15.2021 35.0001 14.79 35.0001C14.7507 35.0001 14.6877 34.9287 14.6772 34.8803C14.4961 34.047 14.3203 33.2111 14.1523 32.3752C14.0683 31.9751 13.987 31.5776 13.8898 31.1775C13.8782 31.128 13.8495 31.084 13.8085 31.0526V31.2182C13.8085 32.4211 13.8085 33.624 13.8085 34.8268C13.8085 34.9772 13.7612 35.0128 13.609 35.0103C13.1261 34.9874 12.6459 34.9925 12.1367 34.9925Z" fill="#F2E8D9"/>
<path d="M55.2695 28.6367H55.574C56.3744 28.6367 57.1749 28.6367 57.9727 28.6367C58.2003 28.6465 58.4236 28.7012 58.6288 28.7973C58.7755 28.8731 58.896 28.9892 58.9754 29.131C59.0547 29.2728 59.0893 29.4341 59.075 29.5949C59.075 31.0645 59.075 32.5341 59.075 34.0037C59.0793 34.1352 59.0552 34.2661 59.0043 34.388C58.9534 34.5099 58.8768 34.6201 58.7794 34.7116C58.6821 34.803 58.566 34.8737 58.4389 34.919C58.3117 34.9643 58.1761 34.9832 58.0409 34.9746H55.4008H55.2695V28.6367ZM56.8993 29.3426V34.0929C56.8954 34.1319 56.8954 34.1711 56.8993 34.2101C56.9023 34.2229 56.9081 34.235 56.9163 34.2456C56.9244 34.2561 56.9347 34.2648 56.9465 34.2713C56.9965 34.2942 57.0517 34.3044 57.1069 34.3009C57.1621 34.2974 57.2154 34.2803 57.2619 34.2513C57.3084 34.2222 57.3465 34.1821 57.3726 34.1348C57.3987 34.0874 57.4119 34.0344 57.4111 33.9808C57.4111 32.5316 57.4111 31.0824 57.4111 29.6332C57.4111 29.442 57.3061 29.3503 57.1066 29.3426H56.8993Z" fill="#F2E8D9"/>
<path d="M47.6761 32.5308C47.9385 33.3514 48.201 34.1669 48.4818 34.9925C47.9333 34.9925 47.4084 34.9925 46.8809 34.9925C46.7706 34.9925 46.7575 34.9288 46.7391 34.8575C46.5738 34.1618 46.4111 33.4686 46.2457 32.7729C46.2405 32.7444 46.2308 32.7169 46.2169 32.6913C46.1964 32.6722 46.1692 32.6613 46.1408 32.6607C46.1276 32.6607 46.1066 32.6939 46.104 32.7117C46.1001 32.7507 46.1001 32.7899 46.104 32.8289V34.9798C46.0437 34.9798 45.999 34.9798 45.9544 34.9798C45.5056 34.9798 45.0542 34.9798 44.6028 34.9798C44.4769 34.9798 44.4375 34.9441 44.4375 34.8243C44.4375 34.1567 44.4375 33.4915 44.4375 32.8238V28.8407C44.4375 28.647 44.4375 28.647 44.6343 28.647C45.4742 28.647 46.314 28.647 47.1538 28.647C47.3328 28.649 47.5102 28.68 47.6787 28.7387C47.8414 28.7842 47.9847 28.8794 48.0873 29.0103C48.1899 29.1411 48.2463 29.3006 48.2482 29.465C48.2771 30.1633 48.2744 30.8641 48.2823 31.5649C48.2902 31.6565 48.2902 31.7486 48.2823 31.8401C48.2705 32.003 48.2052 32.158 48.0961 32.2822C47.987 32.4065 47.8398 32.4936 47.6761 32.5308ZM46.1014 31.9293C46.4767 31.9905 46.6079 31.8886 46.6079 31.542V29.7351C46.6079 29.4064 46.4531 29.2968 46.1014 29.3758V31.9293Z" fill="#F2E8D9"/>
<path d="M42.427 31.8246C42.427 32.5611 42.427 33.295 42.427 34.029C42.4337 34.1589 42.4119 34.2888 42.363 34.4099C42.3142 34.5311 42.2394 34.6408 42.1437 34.7319C42.0479 34.8229 41.9334 34.8932 41.8076 34.9381C41.6818 34.983 41.5477 35.0014 41.414 34.9923C40.8471 34.9923 40.2776 34.9923 39.7107 34.9923C38.9418 34.9923 38.6216 34.5871 38.6163 33.9729C38.598 32.533 38.5953 31.0906 38.6163 29.6406C38.6163 28.9627 38.9864 28.6671 39.6845 28.634C40.2487 28.6085 40.813 28.6136 41.3746 28.634C42.0097 28.6569 42.4375 28.9627 42.4244 29.6533C42.427 30.3847 42.427 31.1059 42.427 31.8246ZM40.275 31.8246V34.029C40.275 34.2252 40.3459 34.2965 40.5374 34.2838C40.729 34.2711 40.7999 34.2023 40.7999 34.0137V29.638C40.7999 29.4443 40.7133 29.3552 40.5374 29.3552C40.3616 29.3552 40.2881 29.4316 40.2881 29.6304L40.275 31.8246Z" fill="#F2E8D9"/>
<path d="M6.86729 28.6367H7.01688C7.78059 28.6367 8.5443 28.6367 9.30802 28.6367C9.43662 28.6367 9.47861 28.6851 9.49435 28.7896C9.54684 29.1923 9.59933 29.5975 9.65444 30.0001C9.71743 30.4894 9.78567 30.9787 9.85128 31.4706C9.90901 31.8911 9.96413 32.3141 10.0219 32.7448C10.0796 33.1755 10.1347 33.5807 10.1925 33.9986C10.2371 34.3222 10.2791 34.6484 10.3237 34.9848C10.2808 34.987 10.2379 34.987 10.1951 34.9848C9.74368 34.9848 9.29227 34.9848 8.84087 34.9848C8.73064 34.9848 8.69652 34.9543 8.68865 34.8472C8.65716 34.3732 8.60992 33.8992 8.57055 33.4252C8.57055 33.3487 8.53381 33.3105 8.4472 33.3131C8.232 33.3131 8.01679 33.3131 7.78322 33.3131L7.62838 34.9746H6.01172C6.29866 32.8696 6.58385 30.757 6.86729 28.6367ZM8.47344 32.5995C8.47344 32.4925 8.47344 32.3982 8.47344 32.309C8.4262 31.784 8.37109 31.259 8.32648 30.7341C8.28973 30.334 8.26349 29.9339 8.22675 29.5338C8.22675 29.4955 8.19001 29.4599 8.16901 29.4216H8.12177L7.84096 32.5893L8.47344 32.5995Z" fill="#F2E8D9"/>
<path d="M2.53656 30.6598C2.53656 30.3107 2.53656 29.9666 2.53656 29.6226C2.53794 29.5891 2.53252 29.5557 2.5206 29.5243C2.50869 29.4929 2.49051 29.464 2.46712 29.4394C2.44372 29.4148 2.41556 29.3949 2.38425 29.3809C2.35294 29.3668 2.31908 29.3589 2.28462 29.3576C2.25015 29.3562 2.21575 29.3615 2.18338 29.3731C2.15101 29.3846 2.12131 29.4023 2.09596 29.425C2.07062 29.4477 2.05013 29.4751 2.03567 29.5055C2.0212 29.5359 2.01305 29.5688 2.01167 29.6022V34.011C2.01167 34.22 2.07991 34.2913 2.27412 34.2888C2.46833 34.2862 2.53656 34.2072 2.53656 34.0033V32.6272C2.52533 32.6174 2.51301 32.6089 2.49982 32.6017C2.28986 32.5813 2.28986 32.5813 2.28986 32.3724C2.28986 32.2246 2.28986 32.0793 2.28986 31.934C2.29429 31.9218 2.29955 31.9099 2.30561 31.8984H4.18734C4.18734 31.9493 4.18734 32.0003 4.18734 32.0513C4.18734 32.6348 4.18734 33.2184 4.18734 33.8046C4.18776 33.9596 4.17104 34.1143 4.13747 34.2658C4.09313 34.4748 3.97437 34.6619 3.80206 34.7942C3.62975 34.9266 3.41491 34.9958 3.1953 34.9896C2.57593 34.9896 1.95393 35.0074 1.33457 34.9896C1.21353 34.9957 1.09245 34.9785 0.978371 34.9387C0.86429 34.899 0.759494 34.8376 0.670092 34.7581C0.58069 34.6787 0.508469 34.5827 0.457638 34.4759C0.406807 34.3691 0.378382 34.2535 0.37402 34.1359C0.360898 33.9575 0.347776 33.7765 0.347776 33.5981C0.347776 32.3418 0.347776 31.088 0.347776 29.8316C0.345815 29.652 0.36787 29.473 0.413387 29.299C0.45516 29.1288 0.553232 28.9765 0.692588 28.8656C0.831944 28.7547 1.0049 28.6912 1.18497 28.6848C1.73086 28.6466 2.27937 28.6491 2.82525 28.6517C3.06393 28.6518 3.30176 28.6792 3.53385 28.7332C3.70867 28.7739 3.86463 28.8698 3.97722 29.0058C4.08981 29.1419 4.15264 29.3105 4.15584 29.485C4.18734 29.8367 4.17684 30.1935 4.18734 30.5477C4.18734 30.6394 4.16109 30.6751 4.05611 30.6751C3.58109 30.6751 3.10607 30.6751 2.62842 30.6751C2.59757 30.6714 2.56692 30.6663 2.53656 30.6598Z" fill="#F2E8D9"/>
<path d="M24.0121 34.9923H20.7578C20.6318 34.9923 20.5898 34.9643 20.5898 34.8394C20.5898 32.8262 20.5898 30.8104 20.5898 28.7971C20.5898 28.7079 20.5898 28.6391 20.7211 28.6417H23.8389C23.8678 28.6417 23.8993 28.6417 23.9465 28.6417V29.2533C23.9465 29.3578 23.8651 29.3374 23.8048 29.3374H22.2721V31.2818C22.3194 31.2818 22.3745 31.2818 22.427 31.2818C22.8836 31.2818 23.3376 31.2818 23.7943 31.2818C23.9124 31.2818 23.9596 31.3073 23.9518 31.4271C23.9518 31.6055 23.9518 31.7864 23.9518 31.9877H22.2695V34.2686H22.4558C22.923 34.2686 23.3875 34.2686 23.8546 34.2686C23.9832 34.2686 24.0226 34.3068 24.0174 34.4266C24.0042 34.6228 24.0121 34.7961 24.0121 34.9923Z" fill="#F2E8D9"/>
<path d="M50.3203 28.6519H51.9448V34.2813C52.0157 34.2813 52.0708 34.2813 52.1259 34.2813C52.5143 34.2813 52.9133 34.2813 53.2912 34.2813C53.4224 34.2813 53.4618 34.3195 53.4539 34.4393C53.446 34.5591 53.4539 34.7298 53.4539 34.8776C53.4539 34.9465 53.4382 34.9872 53.3515 34.9872H50.3203V28.6519Z" fill="#F2E8D9"/>
</g>
<defs>
<clipPath id="clip0_4101_18714">
<rect width="60" height="35" fill="white"/>
</clipPath>
</defs>
</svg>
