<svg width="326" height="174" viewBox="0 0 326 174" fill="none" xmlns="http://www.w3.org/2000/svg">
<path d="M89.2975 83C87.0362 83 85.9055 81.8693 85.9055 79.608V3.896C85.9055 1.63466 87.0362 0.503998 89.2975 0.503998C90.9188 0.503998 92.1988 1.25066 93.1375 2.744L125.01 51.448L123.474 51.64L155.346 2.744C156.242 1.25066 157.586 0.503998 159.378 0.503998C161.383 0.503998 162.386 1.63466 162.386 3.896V79.608C162.386 81.8693 161.276 83 159.058 83C156.796 83 155.666 81.8693 155.666 79.608V10.616L157.65 11.256L128.082 56.312C127.143 57.7627 125.799 58.488 124.05 58.488C122.514 58.488 121.276 57.7627 120.338 56.312L90.7695 11.256L92.6255 11.96V79.608C92.6255 81.8693 91.5162 83 89.2975 83ZM201.513 108.6C195.923 108.6 191.785 107.256 189.097 104.568C186.451 101.88 185.129 97.6987 185.129 92.024C185.129 89.8053 186.238 88.696 188.457 88.696C190.718 88.696 191.849 89.8053 191.849 92.024C191.849 95.864 192.531 98.4667 193.897 99.832C195.262 101.197 197.801 101.88 201.513 101.88H223.657C227.411 101.88 229.971 101.197 231.337 99.832C232.702 98.4667 233.385 95.864 233.385 92.024V74.424C230.953 77.624 227.902 79.864 224.233 81.144C220.563 82.424 216.275 83.064 211.369 83.064H207.785C199.934 83.064 194.195 81.2507 190.569 77.624C186.942 73.9973 185.129 68.3013 185.129 60.536V25.784C185.129 23.5227 186.238 22.392 188.457 22.392C190.718 22.392 191.849 23.5227 191.849 25.784V60.536C191.849 66.4667 193.001 70.584 195.305 72.888C197.651 75.192 201.811 76.344 207.785 76.344H211.369C218.835 76.344 224.361 75.0427 227.945 72.44C231.571 69.7947 233.385 65.8267 233.385 60.536V25.784C233.385 23.5227 234.494 22.392 236.713 22.392C238.974 22.392 240.104 23.5227 240.104 25.784V92.024C240.104 97.6987 238.761 101.88 236.073 104.568C233.427 107.256 229.289 108.6 223.657 108.6H201.513ZM26.803 173C17.5443 173 10.7817 170.867 6.515 166.6C2.24833 162.333 0.115001 155.571 0.115001 146.312V117.192C0.115001 107.848 2.227 101.064 6.451 96.84C10.7177 92.616 17.459 90.504 26.675 90.504H42.163C50.0137 90.504 55.859 92.1467 59.699 95.432C63.539 98.6747 65.651 103.901 66.035 111.112C66.163 112.264 65.9283 113.139 65.331 113.736C64.7763 114.333 63.9443 114.632 62.835 114.632C60.7017 114.632 59.5283 113.501 59.315 111.24C59.0163 105.949 57.5657 102.301 54.963 100.296C52.3603 98.248 48.0937 97.224 42.163 97.224H26.675C21.7683 97.224 17.8643 97.864 14.963 99.144C12.0617 100.381 9.971 102.472 8.691 105.416C7.45367 108.317 6.835 112.243 6.835 117.192V146.312C6.835 151.261 7.475 155.187 8.755 158.088C10.035 160.989 12.1257 163.08 15.027 164.36C17.9283 165.64 21.8537 166.28 26.803 166.28H42.163C46.515 166.28 49.9497 165.747 52.467 164.68C55.027 163.613 56.8403 161.821 57.907 159.304C58.9737 156.787 59.507 153.309 59.507 148.872V140.872L45.491 140.744C43.2723 140.744 42.163 139.613 42.163 137.352C42.163 135.133 43.2723 134.024 45.491 134.024L62.899 134.152C65.1177 134.152 66.227 135.261 66.227 137.48V148.872C66.227 157.32 64.3283 163.464 60.531 167.304C56.7337 171.101 50.611 173 42.163 173H26.803ZM102.577 173C95.921 173 91.0357 171.464 87.921 168.392C84.849 165.277 83.313 160.392 83.313 153.736C83.313 147.08 84.8703 142.195 87.985 139.08C91.0997 135.965 95.9637 134.408 102.577 134.408H131.697C131.612 128.776 130.332 124.851 127.857 122.632C125.425 120.371 121.265 119.24 115.377 119.24H107.953C102.534 119.24 98.5663 119.816 96.049 120.968C93.5317 122.12 91.9743 124.083 91.377 126.856C91.0783 127.923 90.673 128.712 90.161 129.224C89.6917 129.693 88.9237 129.928 87.857 129.928C86.7477 129.928 85.873 129.629 85.233 129.032C84.6357 128.392 84.4223 127.539 84.593 126.472C85.1477 121.608 87.345 118.067 91.185 115.848C95.0677 113.629 100.657 112.52 107.953 112.52H115.377C123.356 112.52 129.18 114.376 132.849 118.088C136.561 121.757 138.417 127.581 138.417 135.56V169.608C138.417 171.869 137.308 173 135.089 173C132.828 173 131.697 171.869 131.697 169.608V163.272C127.601 169.757 120.284 173 109.745 173H102.577ZM102.577 166.28H109.745C113.884 166.28 117.51 165.832 120.625 164.936C123.782 163.997 126.321 162.504 128.241 160.456C130.161 158.408 131.313 155.677 131.697 152.264V141.128H102.577C97.841 141.128 94.5557 142.045 92.721 143.88C90.929 145.672 90.033 148.957 90.033 153.736C90.033 158.472 90.929 161.757 92.721 163.592C94.5557 165.384 97.841 166.28 102.577 166.28ZM228.994 112.392C235.863 112.392 240.77 114.141 243.714 117.64C246.701 121.139 248.194 126.92 248.194 134.984V169.736C248.194 171.955 247.085 173.064 244.866 173.064C242.605 173.064 241.474 171.955 241.474 169.736V134.984C241.474 129.352 240.514 125.299 238.594 122.824C236.674 120.349 233.474 119.112 228.994 119.112H223.682C218.093 119.112 214.082 120.349 211.65 122.824C209.261 125.299 208.066 129.352 208.066 134.984V169.736C208.066 171.955 206.957 173.064 204.738 173.064C202.477 173.064 201.346 171.955 201.346 169.736V134.984C201.346 129.352 200.386 125.299 198.466 122.824C196.546 120.349 193.346 119.112 188.866 119.112H183.554C177.965 119.112 173.954 120.349 171.522 122.824C169.133 125.299 167.938 129.352 167.938 134.984V169.736C167.938 171.955 166.829 173.064 164.61 173.064C162.349 173.064 161.218 171.955 161.218 169.736V115.848C161.218 113.629 162.349 112.52 164.61 112.52C166.829 112.52 167.938 113.629 167.938 115.848V120.84C169.815 117.811 172.034 115.656 174.594 114.376C177.197 113.053 180.482 112.392 184.45 112.392H188.866C193.346 112.392 196.93 113.181 199.618 114.76C202.349 116.296 204.503 118.835 206.082 122.376C207.959 118.835 210.263 116.296 212.994 114.76C215.725 113.181 219.287 112.392 223.682 112.392H228.994ZM275.96 145.352V150.024C275.96 156.04 277.155 160.264 279.544 162.696C281.976 165.085 286.243 166.28 292.344 166.28H302.84C308.216 166.28 312.12 165.597 314.552 164.232C317.027 162.824 318.499 160.413 318.968 157C319.139 155.933 319.48 155.123 319.992 154.568C320.547 154.013 321.379 153.736 322.488 153.736C323.597 153.736 324.429 154.056 324.984 154.696C325.581 155.293 325.816 156.147 325.688 157.256C325.133 162.632 322.979 166.6 319.224 169.16C315.469 171.72 310.008 173 302.84 173H292.344C284.365 173 278.52 171.165 274.808 167.496C271.096 163.784 269.24 157.96 269.24 150.024V135.56C269.24 127.496 271.096 121.629 274.808 117.96C278.52 114.248 284.365 112.435 292.344 112.52H302.84C310.819 112.52 316.643 114.376 320.312 118.088C324.024 121.757 325.88 127.581 325.88 135.56V141.96C325.88 144.221 324.771 145.352 322.552 145.352H275.96ZM292.344 119.24C286.243 119.155 281.976 120.328 279.544 122.76C277.155 125.149 275.96 129.416 275.96 135.56V138.632H319.16V135.56C319.16 129.459 317.965 125.213 315.576 122.824C313.187 120.435 308.941 119.24 302.84 119.24H292.344Z" fill="#F2E8D9"/>
<path d="M93.1375 2.744L92.2909 3.27617L92.2957 3.28391L92.3007 3.29157L93.1375 2.744ZM125.01 51.448L125.134 52.4403L126.724 52.2415L125.846 50.9004L125.01 51.448ZM123.474 51.64L122.636 51.0939L121.459 52.8996L123.598 52.6323L123.474 51.64ZM155.346 2.744L156.183 3.29006L156.193 3.27446L156.203 3.25849L155.346 2.744ZM155.666 10.616L155.973 9.66429L154.666 9.24268V10.616H155.666ZM157.65 11.256L158.486 11.8047L159.206 10.7073L157.957 10.3043L157.65 11.256ZM128.082 56.312L127.245 55.7633L127.242 55.7687L128.082 56.312ZM120.338 56.312L121.177 55.7687L121.174 55.7633L120.338 56.312ZM90.7695 11.256L91.1242 10.321L88.2425 9.22795L89.9335 11.8047L90.7695 11.256ZM92.6255 11.96H93.6255V11.2698L92.9802 11.025L92.6255 11.96ZM89.2975 82C88.321 82 87.7723 81.7565 87.4606 81.4449C87.149 81.1332 86.9055 80.5845 86.9055 79.608H84.9055C84.9055 80.8928 85.2274 82.0401 86.0464 82.8591C86.8654 83.6781 88.0127 84 89.2975 84V82ZM86.9055 79.608V3.896H84.9055V79.608H86.9055ZM86.9055 3.896C86.9055 2.91947 87.149 2.37076 87.4606 2.0591C87.7723 1.74745 88.321 1.504 89.2975 1.504V-0.496002C88.0127 -0.496002 86.8654 -0.174122 86.0464 0.64489C85.2274 1.4639 84.9055 2.61119 84.9055 3.896H86.9055ZM89.2975 1.504C90.5403 1.504 91.516 2.04335 92.2909 3.27617L93.9841 2.21182C92.8817 0.457977 91.2974 -0.496002 89.2975 -0.496002V1.504ZM92.3007 3.29157L124.173 51.9956L125.846 50.9004L93.9743 2.19642L92.3007 3.29157ZM124.885 50.4557L123.349 50.6477L123.598 52.6323L125.134 52.4403L124.885 50.4557ZM124.311 52.1861L156.183 3.29006L154.508 2.19793L122.636 51.0939L124.311 52.1861ZM156.203 3.25849C156.912 2.07692 157.924 1.504 159.378 1.504V-0.496002C157.247 -0.496002 155.571 0.42441 154.488 2.2295L156.203 3.25849ZM159.378 1.504C160.193 1.504 160.631 1.72832 160.885 2.01549C161.16 2.32556 161.386 2.89187 161.386 3.896H163.386C163.386 2.63879 163.109 1.5091 162.382 0.68851C161.634 -0.15499 160.568 -0.496002 159.378 -0.496002V1.504ZM161.386 3.896V79.608H163.386V3.896H161.386ZM161.386 79.608C161.386 80.5893 161.145 81.1406 160.84 81.4517C160.538 81.7592 160.008 82 159.058 82V84C160.326 84 161.46 83.6755 162.267 82.8523C163.071 82.0327 163.386 80.8881 163.386 79.608H161.386ZM159.058 82C158.081 82 157.532 81.7565 157.221 81.4449C156.909 81.1332 156.666 80.5845 156.666 79.608H154.666C154.666 80.8928 154.987 82.0401 155.806 82.8591C156.625 83.6781 157.773 84 159.058 84V82ZM156.666 79.608V10.616H154.666V79.608H156.666ZM155.359 11.5677L157.343 12.2077L157.957 10.3043L155.973 9.66429L155.359 11.5677ZM156.813 10.7073L127.245 55.7633L128.918 56.8607L158.486 11.8047L156.813 10.7073ZM127.242 55.7687C126.49 56.9304 125.465 57.488 124.05 57.488V59.488C126.133 59.488 127.795 58.595 128.921 56.8552L127.242 55.7687ZM124.05 57.488C122.9 57.488 121.959 56.9766 121.177 55.7687L119.498 56.8552C120.594 58.5488 122.127 59.488 124.05 59.488V57.488ZM121.174 55.7633L91.6055 10.7073L89.9335 11.8047L119.501 56.8607L121.174 55.7633ZM90.4148 12.191L92.2708 12.895L92.9802 11.025L91.1242 10.321L90.4148 12.191ZM91.6255 11.96V79.608H93.6255V11.96H91.6255ZM91.6255 79.608C91.6255 80.5893 91.3849 81.1406 91.0797 81.4517C90.778 81.7592 90.2478 82 89.2975 82V84C90.5659 84 91.6997 83.6755 92.5073 82.8523C93.3115 82.0327 93.6255 80.8881 93.6255 79.608H91.6255ZM189.097 104.568L188.384 105.269L188.389 105.275L189.097 104.568ZM233.385 74.424H234.385V71.4555L232.588 73.8189L233.385 74.424ZM224.233 81.144L224.562 82.0882L224.233 81.144ZM190.569 77.624L189.861 78.3311L189.861 78.3311L190.569 77.624ZM195.305 72.888L194.597 73.5951L194.604 73.6016L195.305 72.888ZM227.945 72.44L228.532 73.2492L228.534 73.2479L227.945 72.44ZM236.073 104.568L235.365 103.861L235.36 103.867L236.073 104.568ZM201.513 107.6C196.064 107.6 192.231 106.289 189.804 103.861L188.389 105.275C191.338 108.223 195.782 109.6 201.513 109.6V107.6ZM189.809 103.867C187.423 101.442 186.129 97.5666 186.129 92.024H184.129C184.129 97.8307 185.48 102.318 188.384 105.269L189.809 103.867ZM186.129 92.024C186.129 91.0688 186.367 90.5361 186.668 90.2351C186.969 89.9341 187.501 89.696 188.457 89.696V87.696C187.193 87.696 186.062 88.0125 185.253 88.8209C184.445 89.6292 184.129 90.7605 184.129 92.024H186.129ZM188.457 89.696C189.438 89.696 189.989 89.9366 190.3 90.2418C190.608 90.5435 190.849 91.0737 190.849 92.024H192.849C192.849 90.7556 192.524 89.6218 191.701 88.8142C190.881 88.01 189.737 87.696 188.457 87.696V89.696ZM190.849 92.024C190.849 95.901 191.521 98.8705 193.189 100.539L194.604 99.1249C193.542 98.0628 192.849 95.827 192.849 92.024H190.849ZM193.189 100.539C194.854 102.203 197.752 102.88 201.513 102.88V100.88C197.849 100.88 195.67 100.191 194.604 99.1249L193.189 100.539ZM201.513 102.88H223.657V100.88H201.513V102.88ZM223.657 102.88C227.456 102.88 230.378 102.205 232.044 100.539L230.629 99.1249C229.565 100.19 227.366 100.88 223.657 100.88V102.88ZM232.044 100.539C233.712 98.8705 234.385 95.901 234.385 92.024H232.385C232.385 95.827 231.691 98.0628 230.629 99.1249L232.044 100.539ZM234.385 92.024V74.424H232.385V92.024H234.385ZM232.588 73.8189C230.271 76.8681 227.38 78.9868 223.903 80.1998L224.562 82.0882C228.423 80.7412 231.634 78.3799 234.181 75.0291L232.588 73.8189ZM223.903 80.1998C220.363 81.4346 216.191 82.064 211.369 82.064V84.064C216.359 84.064 220.763 83.4134 224.562 82.0882L223.903 80.1998ZM211.369 82.064H207.785V84.064H211.369V82.064ZM207.785 82.064C200.061 82.064 194.636 80.277 191.276 76.9169L189.861 78.3311C193.755 82.2244 199.807 84.064 207.785 84.064V82.064ZM191.276 76.9169C187.914 73.5551 186.129 68.1703 186.129 60.536H184.129C184.129 68.4323 185.97 74.4396 189.861 78.3311L191.276 76.9169ZM186.129 60.536V25.784H184.129V60.536H186.129ZM186.129 25.784C186.129 24.8027 186.369 24.2514 186.674 23.9403C186.976 23.6328 187.506 23.392 188.457 23.392V21.392C187.188 21.392 186.054 21.7165 185.247 22.5397C184.443 23.3593 184.129 24.5039 184.129 25.784H186.129ZM188.457 23.392C189.433 23.392 189.982 23.6355 190.293 23.9471C190.605 24.2588 190.849 24.8075 190.849 25.784H192.849C192.849 24.4992 192.527 23.3519 191.708 22.5329C190.889 21.7139 189.741 21.392 188.457 21.392V23.392ZM190.849 25.784V60.536H192.849V25.784H190.849ZM190.849 60.536C190.849 66.5343 192.001 70.9992 194.597 73.5951L196.012 72.1809C194 70.1688 192.849 66.3991 192.849 60.536H190.849ZM194.604 73.6016C197.241 76.1908 201.743 77.344 207.785 77.344V75.344C201.879 75.344 198.061 74.1932 196.005 72.1744L194.604 73.6016ZM207.785 77.344H211.369V75.344H207.785V77.344ZM211.369 77.344C218.916 77.344 224.695 76.0353 228.532 73.2492L227.357 71.6308C224.026 74.0501 218.755 75.344 211.369 75.344V77.344ZM228.534 73.2479C232.467 70.3791 234.385 66.0813 234.385 60.536H232.385C232.385 65.5721 230.676 69.2102 227.355 71.6321L228.534 73.2479ZM234.385 60.536V25.784H232.385V60.536H234.385ZM234.385 25.784C234.385 24.8027 234.625 24.2514 234.93 23.9403C235.232 23.6328 235.762 23.392 236.713 23.392V21.392C235.444 21.392 234.31 21.7165 233.503 22.5397C232.699 23.3593 232.385 24.5039 232.385 25.784H234.385ZM236.713 23.392C237.689 23.392 238.238 23.6355 238.549 23.9471C238.861 24.2588 239.104 24.8075 239.104 25.784H241.104C241.104 24.4992 240.783 23.3519 239.964 22.5329C239.145 21.7139 237.997 21.392 236.713 21.392V23.392ZM239.104 25.784V92.024H241.104V25.784H239.104ZM239.104 92.024C239.104 97.5629 237.791 101.435 235.365 103.861L236.78 105.275C239.73 102.325 241.104 97.8345 241.104 92.024H239.104ZM235.36 103.867C232.978 106.287 229.152 107.6 223.657 107.6V109.6C229.425 109.6 233.876 108.225 236.785 105.269L235.36 103.867ZM223.657 107.6H201.513V109.6H223.657V107.6ZM6.515 166.6L7.22211 165.893L7.22211 165.893L6.515 166.6ZM6.451 96.84L5.74745 96.1293L5.74389 96.1329L6.451 96.84ZM59.699 95.432L59.0489 96.1919L59.0538 96.196L59.699 95.432ZM66.035 111.112L65.0364 111.165L65.0379 111.194L65.0411 111.222L66.035 111.112ZM65.331 113.736L64.6239 113.029L64.6108 113.042L64.5982 113.056L65.331 113.736ZM59.315 111.24L58.3166 111.296L58.3177 111.315L58.3194 111.334L59.315 111.24ZM54.963 100.296L54.3446 101.082L54.3527 101.088L54.963 100.296ZM14.963 99.144L15.3553 100.064L15.3666 100.059L14.963 99.144ZM8.691 105.416L7.77391 105.017L7.77116 105.024L8.691 105.416ZM8.755 158.088L7.84008 158.492L7.84008 158.492L8.755 158.088ZM15.027 164.36L14.6234 165.275L14.6234 165.275L15.027 164.36ZM52.467 164.68L52.0824 163.757L52.0769 163.759L52.467 164.68ZM57.907 159.304L56.9863 158.914L56.9863 158.914L57.907 159.304ZM59.507 140.872H60.507V139.881L59.5161 139.872L59.507 140.872ZM45.491 140.744L45.5001 139.744H45.491V140.744ZM45.491 134.024L45.4984 133.024H45.491V134.024ZM62.899 134.152L62.8916 135.152H62.899V134.152ZM60.531 167.304L61.2381 168.011L61.2421 168.007L60.531 167.304ZM26.803 172C17.6708 172 11.2218 169.893 7.22211 165.893L5.80789 167.307C10.3415 171.841 17.4179 174 26.803 174V172ZM7.22211 165.893C3.22243 161.893 1.115 155.444 1.115 146.312H-0.884999C-0.884999 155.697 1.27424 162.773 5.80789 167.307L7.22211 165.893ZM1.115 146.312V117.192H-0.884999V146.312H1.115ZM1.115 117.192C1.115 107.968 3.2041 101.501 7.15811 97.5471L5.74389 96.1329C1.2499 100.627 -0.884999 107.728 -0.884999 117.192H1.115ZM7.15454 97.5506C11.1547 93.5905 17.5847 91.504 26.675 91.504V89.504C17.3333 89.504 10.2806 91.6415 5.74746 96.1293L7.15454 97.5506ZM26.675 91.504H42.163V89.504H26.675V91.504ZM42.163 91.504C49.901 91.504 55.4669 93.1273 59.0489 96.1919L60.3491 94.6721C56.2511 91.1661 50.1263 89.504 42.163 89.504V91.504ZM59.0538 96.196C62.6049 99.1947 64.6606 104.108 65.0364 111.165L67.0336 111.059C66.6414 103.695 64.4731 98.1546 60.3442 94.668L59.0538 96.196ZM65.0411 111.222C65.1488 112.192 64.9339 112.719 64.6239 113.029L66.0381 114.443C66.9227 113.558 67.1772 112.336 67.0289 111.002L65.0411 111.222ZM64.5982 113.056C64.2936 113.384 63.7704 113.632 62.835 113.632V115.632C64.1183 115.632 65.2591 115.283 66.0638 114.416L64.5982 113.056ZM62.835 113.632C61.9444 113.632 61.3971 113.399 61.0489 113.064C60.6916 112.72 60.4036 112.132 60.3106 111.146L58.3194 111.334C58.4398 112.609 58.845 113.718 59.6611 114.504C60.4862 115.299 61.5923 115.632 62.835 115.632V113.632ZM60.3134 111.184C60.0082 105.777 58.5155 101.771 55.5733 99.5039L54.3527 101.088C56.6159 102.832 58.0245 106.121 58.3166 111.296L60.3134 111.184ZM55.5814 99.5101C52.7095 97.2503 48.1607 96.224 42.163 96.224V98.224C48.0266 98.224 52.0112 99.2457 54.3446 101.082L55.5814 99.5101ZM42.163 96.224H26.675V98.224H42.163V96.224ZM26.675 96.224C21.6976 96.224 17.6382 96.8708 14.5594 98.2291L15.3666 100.059C18.0905 98.8572 21.8391 98.224 26.675 98.224V96.224ZM14.5707 98.2242C11.4297 99.5637 9.15382 101.844 7.77393 105.017L9.60807 105.815C10.7882 103.1 12.6937 101.199 15.3553 100.064L14.5707 98.2242ZM7.77116 105.024C6.45946 108.099 5.835 112.176 5.835 117.192H7.835C7.835 112.309 8.44787 108.535 9.61084 105.808L7.77116 105.024ZM5.835 117.192V146.312H7.835V117.192H5.835ZM5.835 146.312C5.835 151.331 6.48139 155.412 7.84008 158.492L9.66992 157.684C8.46861 154.961 7.835 151.192 7.835 146.312H5.835ZM7.84008 158.492C9.22077 161.621 11.4938 163.894 14.6234 165.275L15.4306 163.445C12.7575 162.266 10.8492 160.357 9.66992 157.684L7.84008 158.492ZM14.6234 165.275C17.7031 166.634 21.7844 167.28 26.803 167.28V165.28C21.923 165.28 18.1536 164.646 15.4306 163.445L14.6234 165.275ZM26.803 167.28H42.163V165.28H26.803V167.28ZM42.163 167.28C46.5788 167.28 50.165 166.742 52.8572 165.601L52.0769 163.759C49.7344 164.752 46.4512 165.28 42.163 165.28V167.28ZM52.8516 165.603C55.6493 164.437 57.6574 162.456 58.8278 159.694L56.9863 158.914C56.0233 161.186 54.4047 162.789 52.0824 163.757L52.8516 165.603ZM58.8278 159.694C59.9693 157 60.507 153.37 60.507 148.872H58.507C58.507 153.249 57.9781 156.573 56.9863 158.914L58.8278 159.694ZM60.507 148.872V140.872H58.507V148.872H60.507ZM59.5161 139.872L45.5001 139.744L45.4819 141.744L59.4979 141.872L59.5161 139.872ZM45.491 139.744C44.5407 139.744 44.0105 139.503 43.7088 139.196C43.4036 138.885 43.163 138.333 43.163 137.352H41.163C41.163 138.632 41.477 139.777 42.2812 140.596C43.0888 141.419 44.2226 141.744 45.491 141.744V139.744ZM43.163 137.352C43.163 136.397 43.4011 135.864 43.7021 135.563C44.0031 135.262 44.5358 135.024 45.491 135.024V133.024C44.2275 133.024 43.0962 133.341 42.2879 134.149C41.4795 134.957 41.163 136.089 41.163 137.352H43.163ZM45.4836 135.024L62.8916 135.152L62.9064 133.152L45.4984 133.024L45.4836 135.024ZM62.899 135.152C63.8542 135.152 64.3869 135.39 64.6879 135.691C64.9889 135.992 65.227 136.525 65.227 137.48H67.227C67.227 136.217 66.9105 135.085 66.1021 134.277C65.2938 133.469 64.1625 133.152 62.899 133.152V135.152ZM65.227 137.48V148.872H67.227V137.48H65.227ZM65.227 148.872C65.227 157.201 63.3509 163.03 59.82 166.601L61.2421 168.007C65.3058 163.898 67.227 157.439 67.227 148.872H65.227ZM59.8239 166.597C56.2974 170.123 50.4931 172 42.163 172V174C50.7289 174 57.1699 172.079 61.2381 168.011L59.8239 166.597ZM42.163 172H26.803V174H42.163V172ZM87.921 168.392L87.209 169.094L87.2188 169.104L87.921 168.392ZM87.985 139.08L87.2779 138.373L87.2779 138.373L87.985 139.08ZM131.697 134.408V135.408H132.712L132.697 134.393L131.697 134.408ZM127.857 122.632L127.176 123.364L127.183 123.371L127.189 123.377L127.857 122.632ZM96.049 120.968L96.4651 121.877L96.4651 121.877L96.049 120.968ZM91.377 126.856L92.34 127.126L92.3482 127.096L92.3546 127.067L91.377 126.856ZM90.161 129.224L90.8681 129.931L90.8681 129.931L90.161 129.224ZM85.233 129.032L84.5019 129.714L84.5255 129.74L84.5507 129.763L85.233 129.032ZM84.593 126.472L85.5804 126.63L85.584 126.608L85.5866 126.585L84.593 126.472ZM91.185 115.848L90.6889 114.98L90.6847 114.982L91.185 115.848ZM132.849 118.088L132.138 118.791L132.146 118.799L132.849 118.088ZM131.697 163.272H132.697V159.816L130.852 162.738L131.697 163.272ZM120.625 164.936L120.901 165.897L120.91 165.895L120.625 164.936ZM128.241 160.456L127.511 159.772L127.511 159.772L128.241 160.456ZM131.697 152.264L132.691 152.376L132.697 152.32V152.264H131.697ZM131.697 141.128H132.697V140.128H131.697V141.128ZM92.721 163.592L92.0056 164.291L92.0138 164.299L92.0223 164.307L92.721 163.592ZM102.577 172C96.0494 172 91.473 170.491 88.6232 167.68L87.2188 169.104C90.5984 172.437 95.7926 174 102.577 174V172ZM88.633 167.69C85.8222 164.84 84.313 160.264 84.313 153.736H82.313C82.313 160.52 83.8758 165.715 87.209 169.094L88.633 167.69ZM84.313 153.736C84.313 147.212 85.842 142.637 88.6921 139.787L87.2779 138.373C83.8987 141.752 82.313 146.948 82.313 153.736H84.313ZM88.6921 139.787C91.5432 136.936 96.0975 135.408 102.577 135.408V133.408C95.8298 133.408 90.6561 134.995 87.2779 138.373L88.6921 139.787ZM102.577 135.408H131.697V133.408H102.577V135.408ZM132.697 134.393C132.61 128.666 131.313 124.387 128.525 121.887L127.189 123.377C129.351 125.314 130.613 128.886 130.697 134.423L132.697 134.393ZM128.538 121.9C125.823 119.375 121.34 118.24 115.377 118.24V120.24C121.19 120.24 125.027 121.367 127.176 123.364L128.538 121.9ZM115.377 118.24H107.953V120.24H115.377V118.24ZM107.953 118.24C102.502 118.24 98.354 118.813 95.6329 120.059L96.4651 121.877C98.7787 120.819 102.566 120.24 107.953 120.24V118.24ZM95.6329 120.059C92.8204 121.346 91.0613 123.573 90.3994 126.645L92.3546 127.067C92.8874 124.593 94.243 122.894 96.4651 121.877L95.6329 120.059ZM90.414 126.586C90.1392 127.568 89.7967 128.174 89.4539 128.517L90.8681 129.931C91.5493 129.25 92.0175 128.277 92.34 127.126L90.414 126.586ZM89.4539 128.517C89.2587 128.712 88.8131 128.928 87.857 128.928V130.928C89.0342 130.928 90.1246 130.675 90.8681 129.931L89.4539 128.517ZM87.857 128.928C86.9305 128.928 86.3244 128.683 85.9153 128.301L84.5507 129.763C85.4216 130.576 86.5648 130.928 87.857 130.928V128.928ZM85.9641 128.35C85.6263 127.988 85.4459 127.471 85.5804 126.63L83.6056 126.314C83.3988 127.606 83.645 128.796 84.5019 129.714L85.9641 128.35ZM85.5866 126.585C86.1096 121.998 88.151 118.756 91.6853 116.714L90.6847 114.982C86.539 117.377 84.1857 121.218 83.5994 126.359L85.5866 126.585ZM91.6811 116.716C95.3457 114.622 100.733 113.52 107.953 113.52V111.52C100.581 111.52 94.7897 112.636 90.6889 114.98L91.6811 116.716ZM107.953 113.52H115.377V111.52H107.953V113.52ZM115.377 113.52C123.227 113.52 128.735 115.349 132.138 118.791L133.56 117.385C129.624 113.403 123.484 111.52 115.377 111.52V113.52ZM132.146 118.799C135.588 122.202 137.417 127.71 137.417 135.56H139.417C139.417 127.453 137.534 121.313 133.552 117.377L132.146 118.799ZM137.417 135.56V169.608H139.417V135.56H137.417ZM137.417 169.608C137.417 170.589 137.176 171.141 136.871 171.452C136.569 171.759 136.039 172 135.089 172V174C136.357 174 137.491 173.675 138.299 172.852C139.103 172.033 139.417 170.888 139.417 169.608H137.417ZM135.089 172C134.112 172 133.564 171.757 133.252 171.445C132.94 171.133 132.697 170.585 132.697 169.608H130.697C130.697 170.893 131.019 172.04 131.838 172.859C132.657 173.678 133.804 174 135.089 174V172ZM132.697 169.608V163.272H130.697V169.608H132.697ZM130.852 162.738C127.004 168.831 120.083 172 109.745 172V174C120.485 174 128.198 170.684 132.542 163.806L130.852 162.738ZM109.745 172H102.577V174H109.745V172ZM102.577 167.28H109.745V165.28H102.577V167.28ZM109.745 167.28C113.953 167.28 117.676 166.825 120.901 165.897L120.349 163.975C117.345 164.839 113.815 165.28 109.745 165.28V167.28ZM120.91 165.895C124.207 164.914 126.91 163.338 128.971 161.14L127.511 159.772C125.732 161.67 123.357 163.08 120.34 163.977L120.91 165.895ZM128.971 161.14C131.068 158.902 132.288 155.954 132.691 152.376L130.703 152.152C130.338 155.4 129.254 157.914 127.511 159.772L128.971 161.14ZM132.697 152.264V141.128H130.697V152.264H132.697ZM131.697 140.128H102.577V142.128H131.697V140.128ZM102.577 140.128C97.7744 140.128 94.1408 141.046 92.0139 143.173L93.4281 144.587C94.9705 143.045 97.9076 142.128 102.577 142.128V140.128ZM92.0139 143.173C89.9253 145.261 89.033 148.902 89.033 153.736H91.033C91.033 149.013 91.9327 146.083 93.4281 144.587L92.0139 143.173ZM89.033 153.736C89.033 158.534 89.9281 162.164 92.0056 164.291L93.4364 162.893C91.9299 161.351 91.033 158.41 91.033 153.736H89.033ZM92.0223 164.307C94.1493 166.385 97.7787 167.28 102.577 167.28V165.28C97.9033 165.28 94.9621 164.383 93.4197 162.877L92.0223 164.307ZM243.714 117.64L242.949 118.284L242.953 118.289L243.714 117.64ZM238.594 122.824L237.804 123.437L237.804 123.437L238.594 122.824ZM211.65 122.824L210.937 122.123L210.931 122.129L211.65 122.824ZM198.466 122.824L199.256 122.211L199.256 122.211L198.466 122.824ZM171.522 122.824L170.809 122.123L170.803 122.129L171.522 122.824ZM167.938 120.84H166.938V124.352L168.788 121.367L167.938 120.84ZM174.594 114.376L175.041 115.27L175.047 115.267L174.594 114.376ZM199.618 114.76L199.112 115.622L199.12 115.627L199.128 115.632L199.618 114.76ZM206.082 122.376L205.169 122.783L206.004 124.658L206.966 122.844L206.082 122.376ZM212.994 114.76L213.484 115.632L213.495 115.626L212.994 114.76ZM228.994 113.392C235.719 113.392 240.274 115.105 242.949 118.284L244.479 116.996C241.266 113.177 236.008 111.392 228.994 111.392V113.392ZM242.953 118.289C245.706 121.513 247.194 126.996 247.194 134.984H249.194C249.194 126.844 247.696 120.764 244.475 116.991L242.953 118.289ZM247.194 134.984V169.736H249.194V134.984H247.194ZM247.194 169.736C247.194 170.691 246.956 171.224 246.655 171.525C246.354 171.826 245.821 172.064 244.866 172.064V174.064C246.129 174.064 247.261 173.747 248.069 172.939C248.877 172.131 249.194 170.999 249.194 169.736H247.194ZM244.866 172.064C243.885 172.064 243.333 171.823 243.022 171.518C242.715 171.216 242.474 170.686 242.474 169.736H240.474C240.474 171.004 240.799 172.138 241.622 172.946C242.441 173.75 243.586 174.064 244.866 174.064V172.064ZM242.474 169.736V134.984H240.474V169.736H242.474ZM242.474 134.984C242.474 129.287 241.512 124.954 239.384 122.211L237.804 123.437C239.516 125.643 240.474 129.417 240.474 134.984H242.474ZM239.384 122.211C237.203 119.4 233.643 118.112 228.994 118.112V120.112C233.305 120.112 236.145 121.299 237.804 123.437L239.384 122.211ZM228.994 118.112H223.682V120.112H228.994V118.112ZM223.682 118.112C217.982 118.112 213.644 119.368 210.937 122.123L212.363 123.525C214.52 121.331 218.203 120.112 223.682 120.112V118.112ZM210.931 122.129C208.276 124.879 207.066 129.249 207.066 134.984H209.066C209.066 129.455 210.245 125.718 212.369 123.519L210.931 122.129ZM207.066 134.984V169.736H209.066V134.984H207.066ZM207.066 169.736C207.066 170.691 206.828 171.224 206.527 171.525C206.226 171.826 205.693 172.064 204.738 172.064V174.064C206.001 174.064 207.133 173.747 207.941 172.939C208.749 172.131 209.066 170.999 209.066 169.736H207.066ZM204.738 172.064C203.757 172.064 203.205 171.823 202.894 171.518C202.587 171.216 202.346 170.686 202.346 169.736H200.346C200.346 171.004 200.671 172.138 201.494 172.946C202.313 173.75 203.458 174.064 204.738 174.064V172.064ZM202.346 169.736V134.984H200.346V169.736H202.346ZM202.346 134.984C202.346 129.287 201.384 124.954 199.256 122.211L197.676 123.437C199.388 125.643 200.346 129.417 200.346 134.984H202.346ZM199.256 122.211C197.075 119.4 193.515 118.112 188.866 118.112V120.112C193.177 120.112 196.017 121.299 197.676 123.437L199.256 122.211ZM188.866 118.112H183.554V120.112H188.866V118.112ZM183.554 118.112C177.854 118.112 173.516 119.368 170.809 122.123L172.235 123.525C174.392 121.331 178.075 120.112 183.554 120.112V118.112ZM170.803 122.129C168.148 124.879 166.938 129.249 166.938 134.984H168.938C168.938 129.455 170.117 125.718 172.241 123.519L170.803 122.129ZM166.938 134.984V169.736H168.938V134.984H166.938ZM166.938 169.736C166.938 170.691 166.7 171.224 166.399 171.525C166.098 171.826 165.565 172.064 164.61 172.064V174.064C165.873 174.064 167.005 173.747 167.813 172.939C168.621 172.131 168.938 170.999 168.938 169.736H166.938ZM164.61 172.064C163.629 172.064 163.077 171.823 162.766 171.518C162.459 171.216 162.218 170.686 162.218 169.736H160.218C160.218 171.004 160.543 172.138 161.366 172.946C162.185 173.75 163.33 174.064 164.61 174.064V172.064ZM162.218 169.736V115.848H160.218V169.736H162.218ZM162.218 115.848C162.218 114.898 162.459 114.368 162.766 114.066C163.077 113.761 163.629 113.52 164.61 113.52V111.52C163.33 111.52 162.185 111.834 161.366 112.638C160.543 113.446 160.218 114.58 160.218 115.848H162.218ZM164.61 113.52C165.565 113.52 166.098 113.758 166.399 114.059C166.7 114.36 166.938 114.893 166.938 115.848H168.938C168.938 114.585 168.621 113.453 167.813 112.645C167.005 111.837 165.873 111.52 164.61 111.52V113.52ZM166.938 115.848V120.84H168.938V115.848H166.938ZM168.788 121.367C170.592 118.457 172.683 116.449 175.041 115.27L174.147 113.482C171.385 114.863 169.039 117.165 167.088 120.313L168.788 121.367ZM175.047 115.267C177.468 114.037 180.586 113.392 184.45 113.392V111.392C180.378 111.392 176.925 112.07 174.141 113.485L175.047 115.267ZM184.45 113.392H188.866V111.392H184.45V113.392ZM188.866 113.392C193.241 113.392 196.63 114.165 199.112 115.622L200.124 113.898C197.23 112.198 193.451 111.392 188.866 111.392V113.392ZM199.128 115.632C201.63 117.039 203.656 119.391 205.169 122.783L206.995 121.969C205.35 118.279 203.067 115.553 200.108 113.888L199.128 115.632ZM206.966 122.844C208.778 119.426 210.961 117.051 213.484 115.632L212.504 113.888C209.565 115.541 207.141 118.244 205.198 121.908L206.966 122.844ZM213.495 115.626C216.025 114.163 219.397 113.392 223.682 113.392V111.392C219.177 111.392 215.425 112.2 212.494 113.894L213.495 115.626ZM223.682 113.392H228.994V111.392H223.682V113.392ZM275.96 145.352V144.352H274.96V145.352H275.96ZM279.544 162.696L278.831 163.397L278.837 163.403L278.843 163.409L279.544 162.696ZM314.552 164.232L315.042 165.104L315.047 165.101L314.552 164.232ZM318.968 157L317.981 156.842L317.979 156.853L317.977 156.864L318.968 157ZM319.992 154.568L319.285 153.861L319.271 153.875L319.257 153.89L319.992 154.568ZM324.984 154.696L324.228 155.351L324.252 155.378L324.277 155.403L324.984 154.696ZM325.688 157.256L324.695 157.141L324.693 157.153L325.688 157.256ZM274.808 167.496L274.101 168.203L274.105 168.207L274.808 167.496ZM274.808 117.96L275.511 118.671L275.515 118.667L274.808 117.96ZM292.344 112.52L292.333 113.52H292.344V112.52ZM320.312 118.088L319.601 118.791L319.609 118.799L320.312 118.088ZM292.344 119.24L292.33 120.24H292.344V119.24ZM279.544 122.76L280.251 123.467L280.251 123.467L279.544 122.76ZM275.96 138.632H274.96V139.632H275.96V138.632ZM319.16 138.632V139.632H320.16V138.632H319.16ZM274.96 145.352V150.024H276.96V145.352H274.96ZM274.96 150.024C274.96 156.118 276.16 160.678 278.831 163.397L280.257 161.995C278.15 159.85 276.96 155.962 276.96 150.024H274.96ZM278.843 163.409C281.564 166.082 286.17 167.28 292.344 167.28V165.28C286.316 165.28 282.388 164.089 280.245 161.983L278.843 163.409ZM292.344 167.28H302.84V165.28H292.344V167.28ZM302.84 167.28C308.256 167.28 312.376 166.6 315.042 165.104L314.062 163.36C311.864 164.595 308.176 165.28 302.84 165.28V167.28ZM315.047 165.101C317.849 163.506 319.457 160.785 319.959 157.136L317.977 156.864C317.54 160.041 316.204 162.142 314.057 163.363L315.047 165.101ZM319.955 157.158C320.108 156.206 320.394 155.606 320.727 155.246L319.257 153.89C318.566 154.639 318.17 155.661 317.981 156.842L319.955 157.158ZM320.699 155.275C321 154.974 321.533 154.736 322.488 154.736V152.736C321.225 152.736 320.093 153.053 319.285 153.861L320.699 155.275ZM322.488 154.736C323.403 154.736 323.918 154.993 324.228 155.351L325.74 154.041C324.94 153.119 323.792 152.736 322.488 152.736V154.736ZM324.277 155.403C324.593 155.719 324.8 156.23 324.695 157.141L326.681 157.371C326.832 156.063 326.569 154.867 325.691 153.989L324.277 155.403ZM324.693 157.153C324.163 162.298 322.125 165.971 318.661 168.334L319.787 169.986C323.832 167.229 326.104 162.966 326.683 157.359L324.693 157.153ZM318.661 168.334C315.143 170.732 309.914 172 302.84 172V174C310.102 174 315.796 172.708 319.787 169.986L318.661 168.334ZM302.84 172H292.344V174H302.84V172ZM292.344 172C284.492 172 278.957 170.191 275.511 166.785L274.105 168.207C278.083 172.139 284.238 174 292.344 174V172ZM275.515 166.789C272.068 163.342 270.24 157.828 270.24 150.024H268.24C268.24 158.092 270.124 164.226 274.101 168.203L275.515 166.789ZM270.24 150.024V135.56H268.24V150.024H270.24ZM270.24 135.56C270.24 127.621 272.071 122.072 275.511 118.671L274.105 117.249C270.121 121.187 268.24 127.371 268.24 135.56H270.24ZM275.515 118.667C278.958 115.225 284.486 113.436 292.333 113.52L292.355 111.52C284.245 111.433 278.082 113.271 274.101 117.253L275.515 118.667ZM292.344 113.52H302.84V111.52H292.344V113.52ZM302.84 113.52C310.69 113.52 316.198 115.349 319.601 118.791L321.023 117.385C317.087 113.403 310.947 111.52 302.84 111.52V113.52ZM319.609 118.799C323.051 122.202 324.88 127.71 324.88 135.56H326.88C326.88 127.453 324.997 121.313 321.015 117.377L319.609 118.799ZM324.88 135.56V141.96H326.88V135.56H324.88ZM324.88 141.96C324.88 142.941 324.639 143.493 324.334 143.804C324.032 144.111 323.502 144.352 322.552 144.352V146.352C323.82 146.352 324.954 146.027 325.762 145.204C326.566 144.385 326.88 143.24 326.88 141.96H324.88ZM322.552 144.352H275.96V146.352H322.552V144.352ZM292.358 118.24C286.18 118.154 281.563 119.327 278.837 122.053L280.251 123.467C282.389 121.329 286.306 120.156 292.33 120.24L292.358 118.24ZM278.837 122.053C276.156 124.734 274.96 129.348 274.96 135.56H276.96C276.96 129.484 278.154 125.565 280.251 123.467L278.837 122.053ZM274.96 135.56V138.632H276.96V135.56H274.96ZM275.96 139.632H319.16V137.632H275.96V139.632ZM320.16 138.632V135.56H318.16V138.632H320.16ZM320.16 135.56C320.16 129.388 318.963 124.797 316.283 122.117L314.869 123.531C316.967 125.63 318.16 129.529 318.16 135.56H320.16ZM316.283 122.117C313.603 119.437 309.012 118.24 302.84 118.24V120.24C308.871 120.24 312.77 121.433 314.869 123.531L316.283 122.117ZM302.84 118.24H292.344V120.24H302.84V118.24Z" fill="#A09B94"/>
</svg>
