<svg width="35" height="43" viewBox="0 0 35 43" fill="none" xmlns="http://www.w3.org/2000/svg">
<path fill-rule="evenodd" clip-rule="evenodd" d="M0 15.5C0 23.5 9.00007 42.5 16 42.5C22.9999 42.5 32 23.5 32 15.5C32 7.5 27.5 0 16 0C4.5 0 0 7.5 0 15.5ZM16 22C20.1421 22 23.5 18.6421 23.5 14.5C23.5 10.3579 20.1421 7 16 7C11.8579 7 8.5 10.3579 8.5 14.5C8.5 18.6421 11.8579 22 16 22Z" fill="#E3C18A"/>
<path d="M26 30C28.7614 30 31 27.3137 31 24C31 20.6863 28.7614 18 26 18C23.2386 18 21 20.6863 21 24C21 27.3137 23.2386 30 26 30Z" fill="#F2E8D9"/>
<path fill-rule="evenodd" clip-rule="evenodd" d="M34.82 40C34.938 39.5153 35 39.0137 35 38.5C35 34.3579 30.9706 31 26 31C21.0294 31 17 34.3579 17 38.5C17 39.0137 17.062 39.5153 17.18 40H34.82Z" fill="#F2E8D9"/>
</svg>
