<?xml version="1.0" encoding="utf-8"?>
<!-- Generator: Adobe Illustrator 24.0.2, SVG Export Plug-In . SVG Version: 6.00 Build 0)  -->
<svg version="1.1" id="Layer_1" xmlns="http://www.w3.org/2000/svg" xmlns:xlink="http://www.w3.org/1999/xlink" x="0px" y="0px"
	 viewBox="0 0 156 155" style="enable-background:new 0 0 156 155;" xml:space="preserve">
<style type="text/css">
	.st0{fill:#FFFFFF;}
</style>
<g>
	<path class="st0" d="M77.7,0.2C35,0.2,0.3,34.9,0.3,77.6S35,155,77.7,155s77.4-34.7,77.4-77.4S120.4,0.2,77.7,0.2L77.7,0.2z
		 M112.2,59.9c0,0.8,0,1.5,0,2.3c0,23.5-17.9,50.7-50.7,50.7c-10.1,0-19.4-2.9-27.3-8c1.4,0.2,2.8,0.3,4.2,0.3
		c8.4,0,16-2.8,22.1-7.6c-7.8-0.2-14.4-5.3-16.6-12.4c1.1,0.2,2.2,0.3,3.3,0.3c1.6,0,3.2-0.2,4.7-0.6c-8.1-1.6-14.3-8.8-14.3-17.5
		c0-0.1,0-0.2,0-0.2c2.4,1.3,5.1,2.1,8.1,2.2c-4.8-3.2-7.9-8.6-7.9-14.8c0-3.3,0.9-6.3,2.4-9c8.9,10.7,22,17.8,36.8,18.6
		c-0.3-1.3-0.5-2.7-0.5-4.1c0-9.8,8-17.8,17.8-17.8c5.1,0,9.8,2.2,13,5.6c4.1-0.8,7.9-2.3,11.3-4.3c-1.3,4.2-4.2,7.7-7.8,9.9
		c3.6-0.4,7.1-1.4,10.2-2.8C118.7,54.2,115.7,57.4,112.2,59.9L112.2,59.9z"/>
</g>
</svg>
