<svg xmlns="http://www.w3.org/2000/svg" xmlns:xlink="http://www.w3.org/1999/xlink" viewBox="0 0 648 987"><defs><path id="A" d="M0 236h647.17v750.98H0z"/></defs><clipPath id="B"><use xlink:href="#A"/></clipPath><g clip-path="url(#B)" fill="#666"><path d="M58.77 986.98H588.4c42.93 0 58.77-15.84 58.77-58.79V409.95c0-4.86-.2-9.38-.63-13.56-.98-9.38-1.16-18.46-9.88-28.8-.85-1.01-9.75-7.64-9.75-7.64-4.79-2.35-8.06-4.08-13.46-6.25L352.66 244.44c-13.54-6.21-19.2-8.63-29.03-8.43h0-.04-.04 0c-9.83-.2-15.49 2.22-29.04 8.43L33.72 353.7c-5.4 2.17-8.67 3.9-13.46 6.25 0 0-8.9 6.62-9.75 7.64-8.72 10.34-8.9 19.43-9.88 28.8-.43 4.19-.63 8.7-.63 13.56v518.23c0 42.96 15.84 58.8 58.77 58.8z" fill-rule="evenodd"/><path d="M94.25 465.96l.12-1.2.12-1.31.24-1.2.36-1.19.23-1.08.36-1.2.48-1.08.48-.96.47-1.07.6-.96.6-.96.71-.96.6-.96.71-.84.84-.84.71-.72.96-.84.83-.72.96-.72.95-.59.95-.72 1.08-.6 1.07-.48 1.07-.6 1.2-.48 1.19-.48 1.19-.36 1.19-.36 1.08-.36 1.19-.24 1.07-.24 1.07-.24 1.2-.24 1.19-.12 1.07-.12 1.2-.12 1.31-.12 1.19-.12h1.19 1.31 1.32 1.19l1.19.12h1.31l1.19.12 1.19.12 1.31.12 1.19.24 1.19.12 1.2.24 1.19.24 1.19.24 1.19.24 1.19.36 1.07.24 1.19.36 1.19.36 1.08.48 1.19.36 1.07.36 1.19.48 1.07.48 1.07.48 1.07.59 1.08.48 1.07.6.95.6 1.08.6.95.6.96.6.95.72.95.72.96.72.95.72.84.72.95.84-.72.96-.83.84-.72.96-.83.96-.72.84-.71.96-.84.96-.71.84-.84.96-.71.84-.84.96-.71.96-.72.84-.83.96-.72.96-.83.84-.72.96-.95-.72-1.07-.72-.96-.72-1.07-.72-.96-.6-1.07-.72-.95-.6-1.08-.48-.95-.6-1.07-.48-1.08-.48-1.07-.48-1.07-.36-1.07-.48-1.19-.36-1.19-.36-1.07-.36-1.2-.24-1.19-.24-1.19-.24-1.31-.12-1.19-.24h-1.19l-1.31-.12h-1.19-1.43l-1.31.12-1.2.24-1.07.24-1.07.24-.96.36-.83.48-.96.72-.71.84-.48.96-.36 1.07-.12 1.2v.24l.12 1.43.48 1.2.6.84.83.72.96.72.95.48 1.07.48 1.2.48 1.43.6.83.24.95.24 1.08.36 1.07.24 1.19.36 1.2.24 1.31.36 1.19.24 1.31.36 1.19.24 1.2.36 1.19.24 1.19.36 1.08.36 1.19.24 1.07.36 1.07.36 1.08.36 1.31.48 1.19.48 1.19.48 1.2.48 1.07.6 1.19.6.96.6 1.07.6.95.72.96.6.83.72.84.84.83.84.72.84.71.84.6.84.59.96.6 1.08.48.83.36.96.35 1.08.36.96.24 1.2.24 1.08.12 1.2.12 1.2.12 1.31v1.32.24 1.2l-.12 1.2-.12 1.08-.12 1.2-.24 1.07-.24 1.08-.36 1.08-.24 1.07-.47 1.08-.48 1.08-.48 1.08-.59 1.08-.6 1.08-.71.96-.72.96-.83.96-.84.84-.83.96-.96.84-.83.6-.96.72-.95.72-.95.6-1.08.6-1.07.48-1.07.6-1.08.48-1.19.36-1.19.48-1.08.36-.95.24-1.07.24-1.07.24-1.19.24-1.07.24-1.19.12-1.2.12-1.19.12-1.19.12h-1.19-1.31-1.31-1.31l-1.31-.12-1.31-.12h-1.19l-1.31-.12-1.19-.24-1.31-.12-1.19-.24-1.08-.24-1.19-.24-1.19-.24-1.07-.24-1.19-.36-1.07-.36-1.07-.24-1.19-.48-1.07-.36-1.07-.48-1.07-.48-1.19-.48-1.07-.6-.95-.48-1.08-.6-1.07-.6-.95-.6-1.08-.72-.95-.6-.96-.72-.95-.72-.95-.72.71-.96.6-.96.71-.96.72-.96.71-1.08.6-.96.72-.96.71-.96.6-.96.71-.96.72-.96.6-.96.71-1.08.72-.96.71-.96.6-.96.71-.96.96.72 1.07.6.95.6.96.72 1.07.48.96.6 1.07.48.95.48 1.08.48.95.48 1.07.36.96.48 1.31.36 1.19.36 1.19.36 1.2.24 1.19.24 1.19.24 1.19.12 1.2.12 1.07.12h1.19 1.43l1.31-.24 1.2-.24 1.07-.24.95-.48.84-.48 1.07-.96.72-1.08.47-1.08.12-1.2v-.24l-.12-1.55-.59-1.32-.48-.72-.83-.84-1.08-.6-.95-.6-1.19-.48-1.32-.48-1.43-.48-.95-.24-.95-.36-1.08-.24-1.07-.36-1.19-.24-1.32-.36-1.31-.36-1.31-.36-1.31-.24-1.19-.36-1.31-.36-1.2-.24-1.19-.36-1.19-.36-1.07-.36-1.2-.36-1.07-.36-1.07-.36-1.31-.47-1.19-.6-1.19-.48-1.19-.6-1.08-.6-1.07-.6-.95-.6-.96-.72-.95-.6-.95-.84-.96-.84-.83-.96-.84-.84-.71-.96-.72-1.08-.59-.96-.6-1.08-.48-.96-.36-1.08-.35-1.08-.24-1.08-.24-1.2-.24-1.2-.12-1.19-.12-1.31v-1.32-.24-1.32l.06-1.33zm83.45-23.9h1.19 1.19 1.19 1.19 1.2 1.19 1.19 1.19 1.31 1.19 1.19 1.19 1.2 1.19 1.19 1.19 1.2 1.19 1.19 1.19 1.19 1.19 1.19 1.19 1.19 1.2 1.19 1.19 1.31 1.19 1.19 1.19 1.19 1.2 1.19 1.19 1.19 1.2 1.19 1.19 1.19 1.2 1.19 1.19 1.19 1.19 1.19 1.31 1.19 1.19 1.2 1.19 1.19 1.19 1.19 1.19 1.19v1.2 1.2 1.2 1.19 1.2 1.2 1.19 1.19 1.2 1.2 1.2 1.2 1.2 1.2 1.2 1.19 1.2 1.2 1.08 1.2 1.19 1.19 1.2 1.2 1.2 1.2 1.2 1.2 1.19 1.2 1.2 1.2 1.2 1.2 1.2 1.19 1.2 1.2 1.2 1.2 1.19 1.19 1.19 1.2 1.2 1.2 1.2 1.2 1.19 1.2 1.2 1.2 1.2 1.19 1.08 1.19 1.2 1.2 1.19 1.2 1.19 1.2 1.19 1.2 1.2 1.2 1.2 1.2 1.19 1.2 1.2 1.2 1.2h-1.19-1.19-1.19-1.19-1.19-1.19-1.2-1.19-1.19H234h-1.19-1.19-1.19-1.19-1.07-1.19-1.19-1.19-1.19-1.19-1.19-1.19-1.19-1.19-1.19-1.19-1.2-1.19-1.19-1.19-1.2-1.19-1.19-1.19-1.19-1.2-1.19-1.19-1.19-1.2-1.19H196h-1.19-1.08-1.19-1.19-1.19-1.19-1.19-1.19-1.19-1.2-1.19-1.19-1.19-1.2-1.19-1.19v-1.2-1.08-1.19-1.2-1.19-1.08-1.2-1.2-1.08-1.2-1.2-1.08-1.2-1.19-1.2-1.08-1.2h1.19 1.19 1.2 1.19 1.19 1.19 1.08 1.19 1.19 1.19 1.2 1.19 1.19 1.19 1.2 1.19 1.19 1.19 1.2 1.07 1.19 1.19 1.2 1.19 1.19 1.19 1.2 1.19 1.19 1.19 1.2 1.19 1.07 1.19 1.2 1.19 1.19H222h1.2v-1.2-1.2-1.19-1.2-1.2-1.08-1.2-1.2-1.2-1.2-1.19-1.2H222h-1.19-1.19-1.19-1.2-1.19-1.19-1.19-1.08-1.19-1.19-1.19-1.2-1.19-1.19-1.19-1.2-1.19-1.19-1.19-1.19-1.19-1.19-1.19-1.2-1.19-1.07-1.19-1.2-1.19-1.19-1.19-1.19-1.19-1.19v-1.2-1.08-1.19-1.2-1.08-1.2V487v-1.08-1.2-1.19-1.2-1.08-1.2-1.2-1.08-1.2h1.19 1.19 1.19 1.19 1.19 1.19 1.2 1.19 1.07 1.19 1.2 1.19 1.19 1.19 1.19 1.19 1.19 1.19 1.2 1.19 1.19 1.19 1.2 1.19 1.19 1.19 1.08 1.19 1.19 1.19 1.2 1.19 1.19H222h1.2v-1.19-1.32-1.19-1.2-1.32-1.2-1.19-1.32-1.2-1.2-1.31-1.19H222h-1.19-1.19-1.19-1.2-1.19-1.19-1.19-1.19-1.31-1.19-1.19-1.2-1.19-1.19-1.19-1.19-1.19-1.19-1.19-1.19-1.2-1.19-1.19-1.19-1.2-1.19-1.19-1.19-1.31-1.19-1.19-1.19-1.2-1.19-1.19-1.19-1.19-1.19v-1.2-1.08-1.2-1.2-1.2-1.08-1.19-1.19-1.08-1.2-1.2-1.08-1.19-1.19-1.19-1.08-1.2h1.21zm86.96 0h1.19 1.19 1.31 1.19 1.19 1.19 1.2 1.19 1.31 1.19H278h1.2 1.19 1.19 1.31 1.2 1.19 1.19v1.2 1.2 1.2 1.2 1.2 1.19 1.2 1.2 1.19 1.2 1.2 1.2 1.2 1.2 1.2 1.2 1.2 1.2 1.2 1.2 1.2 1.19 1.2 1.2 1.2 1.2 1.19 1.2 1.2 1.2 1.2 1.19 1.2 1.2 1.2 1.19 1.2 1.2 1.2 1.2 1.19 1.2 1.2l.6-.96.71-1.08.6-.96.71-.96.6-1.08.72-.96.59-.96.6-1.08.71-.96.6-.96.72-.96.59-1.08.72-.96.59-.96.6-1.08.72-.96.59-.96.72-1.07.59-.96.72-.96.59-1.08.6-.96.72-.96.59-1.08.72-.96.59-.96.72-.96.6-1.07.59-.96.72-.96.59-1.08.72-.96.6-.96.71-1.08.6-.96h.47l.72 1.08.6.96.71 1.08.6.96.71 1.07.6.96.71 1.08.6.96.72 1.07.59.96.72 1.08.59.96.72 1.08.6.96.71 1.08.6.96.71 1.08.72.96.6 1.08.71.96.6 1.08.71.96.6 1.08.71.96.6 1.08.72.96.59 1.08.72.96.59 1.07.72.96.6 1.08.71.95.6 1.08.71.96v-1.19-1.2-1.2-1.2-1.2-1.19-1.2-1.2-1.2-1.2-1.08-1.19-1.2-1.2-1.2-1.2-1.19-1.2-1.2-1.2-1.2-1.2-1.2-1.19-1.2-1.2-1.2-1.2-1.2-1.2-1.2-1.2-1.08-1.2-1.19-1.2-1.2-1.19-1.2-1.2-1.2-1.2-1.2h1.19 1.19 1.19 1.19 1.19 1.19 1.19 1.19 1.19 1.19 1.19 1.19 1.19 1.2 1.19 1.19 1.19 1.19 1.19v1.2 1.2 1.2 1.19 1.2 1.2 1.19 1.19 1.2 1.2 1.2 1.2 1.2 1.2 1.2 1.19 1.2 1.2 1.08 1.2 1.19 1.19 1.2 1.2 1.2 1.2 1.2 1.2 1.19 1.2 1.2 1.2 1.2 1.2 1.2 1.19 1.2 1.2 1.2 1.2 1.19 1.19 1.19 1.2 1.2 1.2 1.2 1.2 1.19 1.2 1.2 1.2 1.2 1.19 1.08 1.19 1.2 1.2 1.19 1.2 1.19 1.2 1.19 1.2 1.2 1.2 1.2 1.2 1.19 1.2 1.2 1.2 1.2h-1.19-1.19-1.07H350h-1.19-1.2-1.07-1.19-1.2-1.19-1.07-1.19-1.2-1.19-1.07-1.19-1.2-1.19-1.07-1.19-1.2l-.59-.96-.6-1.07-.71-.95-.6-1.08-.6-.96-.59-1.08-.6-.95-.71-1.08-.6-.96-.6-.96-.59-1.07-.6-.96-.71-1.08-.6-.96-.6-1.07-.59-.96-.72-.96-.6-1.07-.59-.95-.6-1.08-.59-.96-.72-1.07-.6-.96-.59-1.07-.6-.95-.59-.96-.72-1.08-.6-.96-.59-1.08-.6-.95-.59-1.08-.72-.96-.6-1.07-.59-.96-.6.96-.6 1.07-.71.96-.6 1.08-.59.95-.6 1.08-.71.96-.6 1.08-.6.96-.59.95-.72 1.07-.59.96-.6 1.07-.6.96-.71 1.08-.6.95-.6 1.07-.59.96-.6.96-.71 1.07-.6.96-.6 1.08-.59.96-.72 1.07-.59.96-.6.96-.6 1.08-.71.95-.6 1.08-.59.96-.6 1.08-.72.95-.59 1.07-.6.96h-1.19-1.19-1.07-1.19-1.19-1.19-1.08-1.19-1.19-1.19-1.08-1.19-1.19-1.19-1.08-1.19-1.19-1.19-1.08-1.19-1.19v-1.2-1.2-1.2-1.2-1.19-1.2-1.2-1.2-1.2-1.2-1.19-1.2-1.19-1.2-1.19-1.2-1.2-1.19-1.08-1.19-1.2-1.2-1.2-1.2-1.19-1.2-1.2-1.2-1.2-1.2-1.19-1.19-1.19-1.2-1.2-1.2-1.2-1.19-1.2-1.2-1.2-1.2-1.2-1.2-1.19-1.2-1.2-1.2-1.2-1.2-1.2-1.19-1.19-1.2-1.08-1.2-1.2-1.19-1.2-1.2-1.2-1.2-1.2-1.2-1.2-1.19-1.19-1.2-1.2-1.19-1.2-1.2-1.2h1.22zm138.07 35.85l.36 1.08.47 1.2.48 1.08.36 1.08.47 1.08.48 1.2.36 1.08.48 1.08.47 1.07.36 1.08.48 1.2.35 1.08.48 1.08.48 1.08.36 1.08.47 1.2.48 1.08.36 1.07.48 1.08.47 1.2.36 1.08.48 1.08.47-1.08.36-1.08.48-1.2.48-1.08.35-1.07.48-1.08.48-1.2.47-1.08.36-1.08.48-1.08.48-1.08.35-1.2.48-1.08.48-1.07.36-1.08.47-1.08.48-1.2.48-1.08.35-1.08.48-1.08.48-1.2.36-1.08.47-1.08h-1.19-1.19-1.19-1.2-1.19-1.19-1.19-1.2-1.07-1.19-1.2-1.19-1.19-1.19-1.19-1.2-1.19l.48 1.08zm-37.37-35.85h1.2 1.07 1.19 1.2 1.19 1.19 1.07 1.2 1.19 1.19 1.19 1.19 1.07 1.19 1.19 1.2 1.19 1.07 1.19 1.19l.47 1.08.36 1.08.48 1.08.48 1.19.35 1.07.48 1.07.48 1.08.35 1.08.48 1.08.48 1.08.36 1.08.47 1.2.48 1.08.36 1.08.48 1.08h1.19 1.19 1.19 1.19 1.08 1.19 1.19 1.2 1.19 1.19 1.19 1.19 1.2 1.19 1.07 1.2 1.19 1.19 1.19 1.2 1.19 1.19 1.19 1.19 1.08 1.19 1.19 1.2 1.19l.47-1.08.36-1.08.48-1.08.48-1.2.35-1.08.48-1.08.48-1.08.36-1.08.47-1.08.48-1.07.36-1.07.47-1.19.48-1.08.36-1.08.48-1.08h1.19 1.19 1.19 1.2 1.19 1.31 1.19 1.19 1.19 1.19 1.19 1.19 1.2 1.19 1.19 1.31 1.2 1.19 1.19 1.19l-.47 1.08-.48 1.08-.48 1.08-.47 1.19-.36 1.07-.48 1.07-.48 1.08-.47 1.08-.48 1.08-.48 1.2-.47 1.08-.48 1.07-.36 1.08-.48 1.08-.47 1.08-.48 1.2-.48 1.08-.47 1.08-.48 1.07-.48 1.08-.36 1.08-.47 1.2-.48 1.07-.48 1.08-.47 1.08-.48 1.08-.48 1.08-.47 1.2-.36 1.08-.48 1.08-.48 1.08-.47 1.08-.48 1.08-.48 1.2-.47 1.08-.48 1.08-.36 1.08-.48 1.07-.47 1.08-.48 1.2-.48 1.08-.47 1.08-.48 1.08-.48 1.08-.36 1.08-.47 1.07-.48 1.2-.48 1.08-.47 1.08-.48 1.08-.48 1.07-.47 1.08-.36 1.2-.48 1.08-.48 1.08-.47 1.08-.48 1.08-.48 1.08-.47 1.2-.48 1.07-.36 1.08-.48 1.08-.47 1.08-.48 1.08-.48 1.2-.47 1.08-.48 1.08-.48 1.08-.35 1.08-.48 1.08-.48 1.2-.48 1.08-.47 1.08-.48 1.08-.48 1.08-.47 1.07-.36 1.2-.48 1.08-.48 1.08-.47 1.08h-1.19-1.08-1.19-1.19-1.2-1.07-1.19-1.19-1.2-1.07-1.19-1.19-1.2-1.07-1.19-1.19-1.2-1.07-1.19l-.48-1.08-.48-1.08-.47-1.08-.48-1.2-.36-1.07-.47-1.08-.48-1.08-.48-1.08-.48-1.08-.47-1.2-.48-1.08-.48-1.08-.35-1.08-.48-1.08-.48-1.08-.48-1.2-.47-1.08-.48-1.08-.48-1.08-.47-1.08-.36-1.07-.48-1.2-.47-1.08-.48-1.08-.48-1.08-.48-1.08-.47-1.08-.48-1.2-.36-1.08-.47-1.07-.48-1.08-.48-1.08-.48-1.08-.47-1.2-.48-1.07-.48-1.08-.35-1.08-.48-1.08-.48-1.19-.47-1.08-.48-1.2-.48-1.08-.48-1.07-.47-1.08-.36-1.08-.48-1.08-.47-1.2-.48-1.08-.48-1.08-.48-1.08-.47-1.08-.48-1.08-.36-1.2-.47-1.08-.48-1.08-.48-1.08-.47-1.08-.48-1.07-.48-1.2-.48-1.08-.35-1.08-.48-1.07-.48-1.08-.47-1.08-.48-1.2-.48-1.08-.48-1.08-.47-1.08-.36-1.07-.48-1.08-.47-1.2-.48-1.08-.48-1.08-.47-1.08-.48-1.07-.48-1.07-.36-1.19-.47-1.08-.48-1.08-.48-1.08h1.22zm104.26 11.11l.96-.72.83-.6.96-.72.95-.6.95-.72.96-.6.95-.6 1.08-.6 1.07-.6 1.07-.6 1.07-.47 1.07-.6 1.19-.48 1.07-.48 1.2-.48 1.07-.48 1.07-.36 1.07-.36 1.07-.36 1.19-.36 1.07-.36 1.2-.24 1.07-.24 1.19-.24 1.19-.24 1.19-.12 1.31-.12 1.19-.12 1.31-.12 1.2-.12 1.31-.12h1.31 1.31 1.31 1.2l1.19.12 1.31.12 1.19.12 1.19.12 1.2.12 1.19.24 1.19.24 1.07.24 1.19.24 1.07.36 1.19.24 1.08.36 1.07.48 1.07.36 1.19.48 1.08.48 1.07.48 1.07.48 1.08.6.95.59 1.07.6.96.6.95.6.96.72.95.72.95.72.84.72.83.72.84.84.83.72.84.84.83.84.72.84.71.96.72.84.6.96.71.96.6.95.59.96.6 1.08.6.96.47 1.08.48 1.08.48 1.08.47 1.07.36.96.48 1.08.24 1.08.35 1.07.24 1.19.36 1.08.24 1.19.12 1.08.24 1.2.12 1.08.12 1.2.11 1.2.12 1.19v1.32 1.2.24 1.2l-.12 1.31v1.19l-.11 1.2-.12 1.32-.24 1.19-.12 1.2-.24 1.08-.36 1.19-.24 1.2-.35 1.08-.36 1.2-.36 1.08-.48 1.2-.47 1.07-.48 1.08-.48 1.08-.47 1.08-.6 1.08-.6.96-.59.96-.6.96-.6.96-.71.96-.72.96-.71.96-.72.84-.83.84-.72.84-.83.84-.84.84-.83.72-.96.84-.83.72-.95.72-.96.6-.95.72-.96.6-.95.6-1.07.6-1.08.6-1.07.6-1.07.48-1.08.48-1.19.6-.95.36-1.19.36-1.08.48-1.07.24-1.07.36-1.19.24-1.07.36-1.19.24-1.19.12-1.2.24-1.19.12-1.19.12-1.19.12-1.2.12h-1.31-1.19-1.31-1.31l-1.32-.12-1.31-.12h-1.19l-1.19-.12-1.31-.24-1.08-.12-1.19-.24-1.19-.24-1.07-.24-1.07-.24-1.07-.24-1.08-.36-1.07-.24-.95-.36-1.08-.36-1.07-.48-1.07-.48-1.08-.48-1.07-.6-1.07-.48-.96-.6-1.07-.6-.95-.6-1.08-.6-.95-.72-.95-.6-.96-.72-.95-.72-.96-.84-.95-.72.72-.96.83-.84.72-.96.83-.96.72-.96.71-.84.84-.96.71-.96.72-.84.83-.96.72-.96.83-.96.72-.84.71-.96.84-.96.71-.96.84-.84.71-.96.96.72.95.84.96.6.95.72.95.6.96.6.95.6 1.07.6.96.48.95.48.96.36 1.07.36 1.07.36 1.08.24 1.19.24 1.19.24 1.19.12 1.31.12 1.32.12h1.31H508l1.19-.12 1.08-.12 1.19-.24 1.07-.24 1.08-.36 1.07-.36 1.07-.48 1.07-.48.96-.6.95-.6.96-.6.83-.72.84-.72.83-.72.72-.84.83-.84.72-.96.59-.84.6-.96.59-1.08.6-.96.48-1.08.36-1.08.47-1.08.36-1.2.24-1.19.24-1.08.24-1.32.12-1.19.11-1.19v-1.32-.24-1.2l-.11-1.2-.12-1.08-.12-1.2-.24-1.07-.24-1.08-.24-1.07-.36-1.08-.35-.96-.48-1.2-.48-1.08-.59-1.08-.6-.96-.6-.96-.71-.96-.72-.84-.83-.84-.72-.84-.83-.72-.96-.72-.95-.72-.95-.6-.96-.6-1.07-.48-1.07-.48-1.08-.48-1.19-.36-1.19-.36-1.2-.24-1.19-.24-1.19-.12-1.31-.12h-1.31-1.43l-1.32.12-1.31.12-1.19.12-1.19.24-1.2.24-1.19.36-1.07.24-1.07.48-.96.48-1.07.48-.84.48-.95.6v1.19 1.2 1.2 1.19 1.32 1.2 1.2 1.19 1.2h1.19 1.08 1.19 1.19 1.19 1.08 1.19 1.19 1.19 1.07 1.19 1.19 1.19 1.08 1.19v1.19 1.08 1.2 1.2 1.2 1.08 1.2 1.2 1.19 1.08 1.19 1.19 1.2 1.08 1.19h-1.19-1.2-1.19-1.19-1.19-1.19-1.2-1.19-1.19-1.19H495h-1.19-1.19-1.19-1.2-1.19-1.19-1.19-1.19-1.19-1.19-1.19-1.19-1.19-1.19-1.19-1.2-1.19-1.19-1.19-1.2-1.19-1.19v-1.19-1.2-1.2-1.08-1.19-1.2-1.2-1.2-1.2-1.07-1.2-1.2-1.19-1.2-1.2-1.2-1.08-1.2-1.2-1.2-1.19-1.2-1.2-1.08-1.2-1.2-1.2-1.19-1.2-1.08-1.19-1.2-1.2l.83-.65zm38.27 272.77h-51.58v39.9h51.58v81.45h-53.63v39.9h97.43V599.24h-98.24v39.9h54.45v86.8zm-369.43-8.64v-65c0-11.52 5.32-16.86 16.37-16.86h8.19c11.46 0 16.78 5.34 16.78 16.86v181.82c0 11.52-5.32 16.86-16.78 16.86h-7.37c-11.05 0-16.38-5.34-16.38-16.86v-56.36H96.3v58.83c0 35.78 17.19 53.06 52.8 53.06h21.29c35.61 0 53.22-17.68 53.22-53.47V650.25c0-35.79-17.61-53.48-53.22-53.48h-21.7c-35.62 0-53.21 17.68-53.21 53.48v67.04h42.98zm152.1-118.06h-43.8v287.94h43.8V599.24zm63.56 160.02c0-11.52 5.32-16.87 16.37-16.87h18.02v106.13h-18.02c-11.05 0-16.37-5.34-16.37-16.86v-72.4zm9.41 127.92h68.77V599.24h-43.8v104.48h-24.97c-35.61 0-53.21 17.68-53.21 53.47v76.51c0 35.79 17.6 53.48 53.21 53.48"/><path d="M448.36 338.89H197.62l127.98-42.21 122.76 42.21z" fill-rule="evenodd"/></g><defs><path id="C" d="M0 0h647.17v750.98H0z"/></defs><clipPath id="D"><use xlink:href="#C"/></clipPath><g clip-path="url(#D)"><path d="M588.4 0H58.77C15.84 0 0 15.84 0 58.79v518.23c0 4.86.2 9.38.63 13.56.98 9.38 1.16 18.46 9.88 28.8.85 1.01 9.75 7.64 9.75 7.64 4.79 2.35 8.06 4.08 13.46 6.25l260.79 109.26c13.54 6.21 19.2 8.63 29.03 8.43h0 .04.04 0c9.83.2 15.49-2.22 29.04-8.43l260.79-109.26c5.4-2.17 8.67-3.9 13.46-6.25 0 0 8.9-6.62 9.75-7.64 8.72-10.34 8.9-19.43 9.88-28.8.43-4.18.63-8.7.63-13.56V58.79C647.17 15.84 631.32 0 588.4 0z" fill-rule="evenodd" fill="#fff"/><g fill="#343434"><path d="M552.92 521.02l-.12 1.2-.12 1.31-.24 1.2-.36 1.19-.23 1.08-.36 1.2-.48 1.08-.48.96-.47 1.07-.6.96-.6.96-.71.96-.6.96-.71.84-.84.84-.71.72-.96.84-.83.72-.96.72-.95.59-.95.72-1.08.6-1.07.48-1.07.6-1.2.48-1.19.48-1.19.36-1.19.36-1.08.36-1.19.24-1.07.24-1.07.24-1.2.24-1.19.12-1.07.12-1.2.12-1.31.12-1.19.12h-1.19-1.31-1.32-1.19l-1.19-.12h-1.31l-1.19-.12-1.19-.12-1.31-.12-1.19-.24-1.19-.12-1.2-.24-1.19-.24-1.19-.24-1.19-.24-1.19-.36-1.07-.24-1.19-.36-1.19-.36-1.08-.48-1.19-.36-1.07-.36-1.19-.48-1.07-.48-1.07-.48-1.07-.59-1.08-.48-1.07-.6-.95-.6-1.08-.6-.95-.6-.96-.6-.95-.72-.95-.72-.96-.72-.95-.72-.84-.72-.95-.84.72-.96.83-.84.72-.96.83-.96.72-.84.71-.96.84-.96.71-.84.84-.96.71-.84.84-.96.71-.96.72-.84.83-.96.72-.96.83-.84.72-.96.95.72 1.07.72.96.72 1.07.72.96.6 1.07.72.95.6 1.08.48.95.6 1.07.48 1.08.48 1.07.48 1.07.36 1.07.48 1.19.36 1.19.36 1.07.36 1.2.24 1.19.24 1.19.24 1.31.12 1.19.24h1.19l1.31.12h1.19 1.43l1.31-.12 1.2-.24 1.07-.24 1.07-.24.96-.36.83-.48.96-.72.71-.84.48-.96.36-1.07.12-1.2v-.24l-.12-1.43-.48-1.2-.6-.84-.83-.72-.96-.72-.95-.48-1.07-.48-1.2-.48-1.43-.6-.83-.24-.95-.24-1.08-.36-1.07-.24-1.19-.36-1.2-.24-1.31-.36-1.19-.24-1.31-.36-1.19-.24-1.2-.36-1.19-.24-1.19-.36-1.08-.36-1.19-.24-1.07-.36-1.07-.36-1.08-.36-1.31-.48-1.19-.48-1.19-.48-1.2-.48-1.07-.6-1.19-.6-.96-.6-1.07-.6-.95-.72-.96-.6-.83-.72-.84-.84-.83-.84-.72-.84-.71-.84-.6-.84-.59-.96-.6-1.07-.48-.83-.36-.96-.35-1.08-.36-.96-.24-1.2-.24-1.08-.12-1.2-.12-1.2-.12-1.31v-1.32-.24-1.2l.12-1.2.12-1.08.12-1.2.24-1.07.24-1.08.36-1.08.24-1.07.47-1.08.48-1.08.48-1.08.59-1.08.6-1.08.71-.96.72-.96.83-.96.84-.84.83-.96.96-.84.83-.6.96-.72.95-.72.95-.6 1.08-.6 1.07-.48 1.07-.6 1.08-.48 1.19-.36 1.19-.48 1.08-.36.95-.24 1.07-.24 1.07-.24 1.19-.24 1.07-.24 1.19-.12 1.2-.12 1.19-.12 1.19-.12h1.19 1.31 1.31 1.31l1.31.12 1.31.12h1.19l1.32.12 1.19.24 1.31.12 1.19.24 1.08.24 1.19.24 1.19.24 1.07.24 1.19.36 1.07.36 1.07.24 1.2.48 1.07.36 1.07.48 1.07.48 1.2.48 1.07.6.95.48 1.08.6 1.07.6.95.6 1.08.72.95.6.96.72.95.72.95.72-.71.96-.6.96-.71.96-.72.96-.71 1.08-.6.96-.72.96-.71.96-.6.96-.71.96-.72.96-.6.96-.71 1.08-.72.96-.71.96-.6.96-.71.96-.96-.72-1.07-.6-.95-.6-.96-.72-1.07-.48-.96-.6-1.07-.48-.95-.48-1.08-.48-.95-.48-1.07-.36-.96-.48-1.31-.36-1.19-.36-1.19-.36-1.2-.24-1.19-.24-1.19-.24-1.19-.12-1.2-.12-1.07-.12h-1.19-1.43l-1.31.24-1.2.24-1.07.24-.95.48-.84.48-1.07.96-.72 1.08-.47 1.08-.12 1.2v.24l.12 1.55.59 1.32.48.72.83.84 1.08.6.95.6 1.19.48 1.31.48 1.43.48.95.24.95.36 1.08.24 1.07.36 1.19.24 1.32.36 1.31.36 1.31.36 1.31.24 1.19.36 1.31.36 1.2.24 1.19.36 1.19.36 1.07.36 1.2.36 1.07.36 1.07.36 1.32.47 1.19.6 1.19.48 1.19.6 1.08.6 1.07.6.95.6.96.72.95.6.95.84.96.84.83.96.84.84.71.96.72 1.07.59.96.6 1.08.48.96.36 1.07.35 1.08.24 1.08.24 1.2.24 1.2.12 1.2.12 1.31v1.32.24 1.32l-.09 1.33zm-83.46 23.9h-1.19-1.19-1.19-1.19-1.2-1.19-1.19-1.19-1.31-1.19-1.19-1.19-1.2-1.19-1.19-1.19-1.2-1.19-1.19-1.19-1.19-1.2-1.19-1.19-1.19-1.2-1.19-1.19-1.31-1.19-1.19-1.19-1.19-1.2-1.19-1.19-1.19H424h-1.19-1.19-1.19-1.2-1.19-1.19-1.19-1.2-1.19-1.31-1.19-1.19-1.2-1.19H406h-1.19-1.2-1.19-1.19v-1.2-1.2-1.2-1.19-1.2-1.2-1.19-1.19-1.2-1.2-1.19-1.2-1.2-1.2-1.2-1.19-1.19-1.2-1.08-1.2-1.2-1.19-1.2-1.2-1.2-1.2-1.2-1.2-1.19-1.19-1.2-1.2-1.19-1.2-1.2-1.19-1.2-1.2-1.19-1.2-1.19-1.19-1.19-1.2-1.2-1.2-1.19-1.2-1.19-1.2-1.2-1.2-1.2-1.2-1.08-1.19-1.2-1.2-1.2-1.2-1.19-1.2-1.19-1.2-1.19-1.2-1.2-1.2-1.19-1.2-1.19-1.2-1.2h1.19 1.19 1.2H406h1.19 1.19 1.2 1.19 1.19 1.19 1.19 1.19 1.19 1.19 1.08 1.19 1.19 1.19 1.19 1.19 1.19 1.19 1.2 1.19 1.19 1.19 1.2 1.19 1.19 1.19 1.2 1.19 1.19 1.19 1.19 1.2 1.19 1.19 1.19 1.2 1.19 1.19 1.19 1.08 1.19 1.19 1.19 1.19 1.19 1.19 1.19 1.2 1.19 1.19 1.19 1.2 1.19 1.19v1.2 1.08 1.2 1.2 1.19 1.08 1.2 1.2 1.08 1.2 1.2 1.08 1.2 1.19 1.2 1.08 1.2h-1.19-1.19-1.2-1.19-1.19-1.19-1.08-1.19-1.19-1.19-1.2-1.19-1.19-1.19-1.2-1.19-1.19-1.19-1.2-1.07-1.19-1.19-1.2-1.19-1.19-1.19-1.2-1.19-1.19-1.19-1.2-1.19-1.07-1.19-1.2-1.19-1.19-1.19H424v1.2 1.2 1.19 1.2 1.2 1.08 1.2 1.2 1.19 1.2 1.19 1.2h1.2 1.19 1.19 1.19 1.2 1.19 1.19 1.19 1.08 1.19H437h1.19 1.2 1.19 1.19 1.19 1.2 1.19 1.19 1.19 1.19 1.19 1.19 1.19 1.2 1.19 1.07 1.19 1.2 1.19 1.19 1.19 1.19 1.19 1.19v1.2 1.08 1.19 1.19 1.08 1.2 1.2 1.08 1.2 1.19 1.2 1.07 1.2 1.2 1.08 1.19h-1.19-1.19-1.19-1.19-1.19-1.19-1.2-1.19-1.07-1.19-1.2-1.19-1.19-1.19-1.19-1.19-1.19-1.19-1.2-1.19-1.19-1.19-1.2H437h-1.19-1.19-1.08-1.19-1.19-1.19-1.2-1.19-1.19-1.19-1.2v1.19 1.32 1.2 1.2 1.32 1.2 1.19 1.32 1.2 1.2V524v1.19h1.2 1.19 1.19 1.19 1.2 1.19 1.19 1.19 1.19 1.31 1.19 1.19 1.2 1.19H442h1.19 1.2 1.19 1.19 1.19 1.19 1.2 1.19 1.19 1.19 1.2 1.19 1.19 1.19H460h1.19 1.19 1.19 1.2 1.19 1.19 1.19 1.19 1.19v1.2 1.08 1.2 1.2 1.2 1.08 1.19 1.2 1.08 1.2 1.2 1.08 1.19 1.2 1.19 1.08 1.2h-1.26zm-86.95 0h-1.19-1.19-1.31-1.19-1.19-1.19-1.2-1.19-1.31-1.19-1.19-1.2-1.19-1.19-1.31-1.2-1.19-1.19v-1.2-1.2-1.2-1.2-1.2-1.19-1.2-1.2-1.2-1.2-1.2-1.2-1.2-1.2-1.2-1.2-1.2-1.2-1.2-1.2-1.2-1.19-1.2-1.2V515v-1.2-1.19-1.2-1.2-1.2-1.2-1.19-1.2-1.2-1.2-1.19-1.2-1.2-1.2-1.2-1.19-1.2-1.2l-.6.96-.71 1.08-.6.96-.71.96-.6 1.07-.72.96-.59.96-.6 1.08-.71.96-.6.96-.72.96-.59 1.08-.72.96-.59.96-.6 1.08-.72.96-.59.96-.72 1.07-.59.96-.72.96-.59 1.08-.6.96-.72.96-.59 1.08-.72.96-.59.96-.72.96-.6 1.07-.59.96-.72.96-.59 1.08-.72.96-.6.96-.71 1.08-.6.96h-.47l-.72-1.08-.6-.96-.71-1.08-.6-.96-.71-1.07-.6-.96-.71-1.08-.6-.96-.72-1.07-.59-.96-.72-1.08-.59-.96-.72-1.08-.6-.96-.71-1.08-.6-.96-.71-1.08-.72-.96-.6-1.08-.71-.96-.6-1.08-.71-.96-.6-1.08-.71-.96-.6-1.08-.72-.96-.59-1.08-.72-.96-.59-1.07-.72-.96-.6-1.08-.71-.95-.6-1.08-.71-.96v1.19 1.2 1.2 1.2 1.2 1.19 1.2 1.2 1.2 1.2 1.08 1.19 1.2 1.19 1.2 1.2 1.19 1.2 1.2 1.2 1.2 1.2 1.2 1.2 1.2 1.19 1.2 1.2 1.2 1.2 1.2 1.2 1.08 1.2 1.2 1.2 1.2 1.19 1.2 1.2 1.2 1.2 1.2h-1.19-1.19-1.19-1.19-1.19-1.19-1.19-1.19-1.19-1.2-1.19-1.19-1.19-1.2-1.19-1.19-1.19-1.2-1.19v-1.2-1.2-1.2-1.19-1.2-1.2-1.19-1.19-1.2-1.2-1.19-1.2-1.2-1.2-1.2-1.19-1.19-1.2-1.08-1.2-1.2-1.19-1.2-1.2-1.2-1.2-1.2-1.2-1.19-1.19-1.2-1.2-1.19-1.2-1.2-1.19-1.2-1.2-1.19-1.2-1.19-1.19-1.19-1.2-1.2-1.2-1.19-1.2-1.19-1.2-1.2-1.2-1.2-1.2-1.08-1.19-1.2-1.2-1.2-1.2-1.19-1.2-1.19-1.2-1.19-1.2-1.2-1.2-1.19-1.2-1.19-1.2-1.2h1.19 1.2 1.07 1.19 1.19 1.2 1.07 1.19 1.2 1.19 1.07 1.19 1.2 1.19 1.07 1.19 1.2 1.19 1.07 1.19 1.2l.59.96.6 1.07.71.95.6 1.08.6.96.59 1.08.6.95.71 1.08.6.96.6.96.59 1.07.6.96.71 1.08.6.96.6 1.07.59.96.72.96.6 1.07.59.95.6 1.08.59.96.72 1.07.6.96.59 1.08.6.95.59.96.72 1.08.6.96.59 1.08.6.95.59 1.08.72.96.6 1.07.59.96.6-.96.6-1.07.71-.96.6-1.08.59-.95.6-1.08.71-.96.6-1.08.6-.96.59-.95.72-1.08.59-.96.6-1.07.6-.96.71-1.08.6-.95.6-1.07.59-.96.6-.96.71-1.07.6-.96.6-1.08.59-.96.72-1.07.59-.96.6-.96.6-1.08.71-.95.6-1.08.59-.96.6-1.08.72-.95.59-1.07.6-.96h1.19 1.19 1.07 1.19 1.19 1.19 1.08 1.19 1.19 1.19 1.08 1.19 1.19 1.19 1.08 1.19 1.19 1.19 1.08 1.19 1.19v1.2 1.2 1.19 1.2 1.19 1.2 1.2 1.2 1.19 1.2 1.19 1.2 1.19 1.2 1.2 1.2 1.2 1.19 1.08 1.2 1.2 1.2 1.2 1.2 1.19 1.2 1.19 1.2 1.2 1.2 1.19 1.19 1.19 1.2 1.19 1.2 1.2 1.19 1.2 1.2 1.19 1.2 1.2 1.19 1.19 1.2 1.2 1.2 1.2 1.2 1.2 1.19 1.2 1.2 1.08 1.2 1.19 1.19 1.2 1.2 1.2 1.2 1.19 1.2 1.2 1.19 1.19 1.2 1.2 1.19 1.2 1.2 1.2h-1.21zm-138.08-35.86l-.36-1.08-.47-1.2-.48-1.08-.36-1.08-.47-1.08-.48-1.2-.36-1.08-.48-1.08-.47-1.08-.36-1.08-.48-1.2-.35-1.08-.48-1.08-.48-1.08-.36-1.08-.47-1.2-.48-1.08-.36-1.07-.48-1.08-.47-1.2-.36-1.08-.48-1.08-.47 1.08-.36 1.08-.48 1.2-.48 1.08-.35 1.07-.48 1.08-.48 1.2-.47 1.08-.36 1.08-.48 1.08-.48 1.08-.35 1.2-.48 1.08-.48 1.08-.36 1.08-.47 1.08-.48 1.2-.48 1.08-.35 1.08-.48 1.08-.48 1.2-.36 1.08-.47 1.08h1.19 1.19 1.19 1.2 1.19 1.19 1.19 1.2 1.07 1.19 1.2 1.19 1.19 1.19 1.19 1.2 1.19l-.48-1.08zm37.38 35.86h-1.2-1.07-1.19-1.2-1.19-1.19-1.07-1.2-1.19-1.19-1.19-1.19-1.07-1.19-1.19-1.2-1.19-1.07-1.19-1.2l-.47-1.08-.36-1.08-.48-1.08-.48-1.19-.35-1.07-.48-1.07-.48-1.08-.35-1.08-.48-1.08-.48-1.08-.36-1.08-.47-1.19-.48-1.08-.36-1.08-.48-1.08h-1.19-1.19-1.19-1.19-1.08-1.19-1.19-1.2-1.19-1.19-1.19-1.19-1.2-1.19-1.07-1.2-1.19-1.19-1.19-1.2-1.19-1.19-1.19-1.19-1.08-1.19-1.19-1.2-1.19l-.47 1.08-.36 1.08-.48 1.08-.48 1.19-.35 1.08-.48 1.08-.48 1.08-.36 1.08-.47 1.08-.48 1.07-.36 1.07-.47 1.19-.48 1.08-.36 1.08-.48 1.08h-1.19-1.19-1.19-1.2-1.19-1.31-1.19-1.19-1.19-1.19-1.19-1.19-1.2-1.19-1.19-1.31-1.2-1.19-1.19-1.19l.47-1.08.48-1.08.48-1.08.47-1.19.36-1.07.48-1.07.48-1.08.47-1.08.48-1.08.48-1.2.47-1.08.48-1.07.36-1.08.48-1.08.47-1.08.48-1.2.48-1.08.47-1.08.48-1.07.48-1.08.36-1.08.47-1.2.48-1.07.48-1.08.47-1.08.48-1.08.48-1.08.47-1.2.36-1.08.48-1.08.48-1.08.47-1.08.48-1.08.48-1.2.47-1.08.48-1.08.36-1.08.48-1.07.47-1.08.48-1.2.48-1.08.47-1.08.48-1.08.48-1.07.36-1.08.47-1.07.48-1.2.48-1.08.47-1.08.48-1.08.48-1.08.47-1.08.36-1.2.48-1.07.48-1.08.47-1.08.48-1.08.48-1.08.47-1.2.48-1.07.36-1.08.48-1.08.47-1.08.48-1.08.48-1.19.47-1.08.48-1.08.48-1.08.35-1.08.48-1.08.48-1.2.48-1.08.47-1.08.48-1.08.48-1.08.47-1.07.36-1.2.48-1.08.48-1.08.47-1.08h1.19 1.08 1.19 1.19 1.2 1.07 1.19 1.19 1.2 1.07 1.19 1.19 1.2 1.07 1.19 1.19 1.2 1.07 1.19l.48 1.08.48 1.08.47 1.08.48 1.2.36 1.07.47 1.08.48 1.08.48 1.08.48 1.08.47 1.2.48 1.08.48 1.08.35 1.08.48 1.08.48 1.08.48 1.19.47 1.08.48 1.08.48 1.08.47 1.08.36 1.07.48 1.2.47 1.08.48 1.08.48 1.08.48 1.08.47 1.07.48 1.2.36 1.08.47 1.08.48 1.08.48 1.08.48 1.08.47 1.2.48 1.07.48 1.08.35 1.07.48 1.08.48 1.08.47 1.08.48 1.2.48 1.08.48 1.07.47 1.08.36 1.08.48 1.08.47 1.2.48 1.08.48 1.08.48 1.08.47 1.08.48 1.08.36 1.2.47 1.08.48 1.08.48 1.08.47 1.08.48 1.07.48 1.2.48 1.08.35 1.08.48 1.07.48 1.08.47 1.08.48 1.2.48 1.08.48 1.08.47 1.08.36 1.07.48 1.08.47 1.2.48 1.08.48 1.08.47 1.08.48 1.07.48 1.07.36 1.19.47 1.08.48 1.08.48 1.08h-1.21zm-104.26-11.11l-.96.72-.83.6-.96.72-.95.6-.95.72-.96.6-.95.6-1.08.6-1.07.6-1.07.6-1.07.47-1.07.6-1.19.48-1.07.48-1.2.48-1.07.48-1.07.36-1.07.36-1.07.36-1.19.36-1.07.36-1.2.24-1.07.24-1.19.24-1.19.24-1.19.12-1.31.12-1.19.12-1.31.12-1.2.12-1.31.12h-1.31-1.31-1.31-1.2l-1.19-.12-1.31-.12-1.19-.12-1.19-.12-1.2-.12-1.19-.24-1.19-.24-1.07-.24-1.19-.24-1.07-.36-1.19-.24-1.08-.36-1.07-.48-1.07-.36-1.19-.48-1.08-.48-1.07-.48-1.07-.48-1.08-.6-.95-.59-1.07-.6-.96-.6-.95-.6-.96-.72-.95-.72-.95-.72-.84-.72-.83-.72-.84-.84-.83-.72-.84-.84-.83-.84-.72-.84-.71-.96-.72-.84-.6-.96-.71-.96-.6-.95-.59-.96-.6-1.08-.6-.96-.47-1.08-.48-1.08-.48-1.08-.47-1.07-.36-.96-.48-1.08-.24-1.08-.35-1.07-.24-1.2-.36-1.08-.24-1.19-.12-1.08-.24-1.2-.12-1.08-.12-1.2-.11-1.2-.12-1.19v-1.32-1.2-.24-1.2l.12-1.31v-1.2l.11-1.2.12-1.31.24-1.19.12-1.2.24-1.08.36-1.19.24-1.2.35-1.08.36-1.19.36-1.08.48-1.2.47-1.08.48-1.08.48-1.08.47-1.08.6-1.08.6-.96.59-.96.6-.96.6-.96.71-.96.72-.96.71-.96.72-.84.83-.84.72-.84.83-.83.84-.84.83-.72.96-.84.83-.72.95-.72.96-.6.95-.72.96-.6.95-.6 1.07-.6 1.08-.6 1.07-.6 1.07-.48 1.08-.48 1.19-.6.95-.36 1.19-.36 1.08-.48 1.07-.24 1.07-.36 1.19-.24 1.07-.36 1.19-.24 1.19-.12 1.19-.24 1.19-.12 1.19-.12 1.19-.12 1.2-.12h1.31 1.19 1.31 1.31l1.32.12 1.31.12h1.19l1.19.12 1.31.24 1.08.12 1.19.24 1.19.24 1.07.24 1.07.24 1.07.24 1.08.36 1.07.24.95.36 1.08.36 1.07.48 1.07.48 1.08.48 1.07.6 1.07.48.96.6 1.07.6.95.6 1.08.6.95.72.95.6.96.72.95.72.96.84.95.72-.72.96-.83.84-.72.96-.83.96-.72.96-.71.84-.84.96-.71.96-.72.84-.83.96-.72.96-.83.96-.72.84-.71.96-.84.96-.71.96-.84.84-.71.96-.96-.72-.95-.84-.96-.6-.95-.72-.95-.6-.96-.6-.95-.6-1.07-.6-.96-.48-.95-.48-.96-.36-1.07-.36-1.07-.36-1.08-.24-1.19-.24-1.19-.24-1.19-.12-1.31-.12-1.32-.12h-1.31-1.19l-1.19.12-1.08.12-1.19.24-1.07.24-1.08.36-1.07.36-1.07.48-1.07.48-.96.6-.95.6-.96.6-.83.72-.84.72-.83.72-.72.84-.83.84-.72.96-.59.84-.6.96-.59 1.08-.6.96-.48 1.08-.36 1.08-.47 1.08-.36 1.2-.24 1.19-.24 1.07-.24 1.32-.12 1.2-.11 1.19v1.32.24 1.2l.11 1.2.12 1.08.12 1.2.24 1.07.24 1.08.24 1.07.36 1.08.35.96.48 1.2.48 1.08.59 1.08.6.96.6.96.71.96.72.84.83.84.72.84.83.72.96.72.95.72.95.6.96.6 1.07.48 1.07.48 1.07.48 1.19.36 1.19.36 1.2.24 1.19.24 1.19.12 1.31.12h1.31 1.43l1.32-.12 1.31-.12 1.19-.12 1.19-.24 1.2-.24 1.19-.36 1.07-.24 1.07-.48.96-.48 1.07-.48.84-.48.95-.6v-1.2-1.2-1.2-1.19-1.32-1.2-1.2-1.2-1.2h-1.19-1.07-1.19-1.19-1.19-1.08-1.19-1.19-1.19-1.07-1.19-1.19-1.19-1.07-1.19v-1.19-1.08-1.2-1.2-1.2-1.08-1.2-1.2-1.19-1.08-1.19-1.2-1.2-1.08-1.19h1.19 1.2 1.19 1.19 1.19 1.19 1.2 1.19 1.19 1.19 1.19 1.19 1.19 1.19 1.2 1.19 1.19 1.19 1.19 1.19 1.19 1.19 1.19 1.19 1.19 1.19 1.2 1.19 1.19 1.19 1.2 1.19 1.19v1.19 1.2 1.2 1.08 1.19 1.2 1.2 1.2 1.2 1.08 1.2 1.2 1.19 1.2 1.2 1.2 1.08 1.2 1.2 1.2V519v1.2 1.2 1.08 1.2 1.2 1.2 1.19 1.2 1.08 1.19 1.2 1.2l-.83.67zm-38.28-272.77h51.58v-39.9h-51.58v-81.45h53.63V99.8H95.48v287.93h98.25v-39.9h-54.45v-86.79zm369.44 8.64v64.99c0 11.52-5.32 16.86-16.37 16.86h-8.19c-11.46 0-16.78-5.34-16.78-16.86V152.86c0-11.52 5.32-16.86 16.78-16.86h7.37c11.05 0 16.38 5.34 16.38 16.86v56.36h42.98v-58.83c0-35.78-17.19-53.06-52.8-53.06h-21.29c-35.61 0-53.22 17.68-53.22 53.47v185.92c0 35.79 17.61 53.48 53.22 53.48h21.7c35.62 0 53.21-17.68 53.21-53.48v-67.05h-42.99zm-152.1 118.05h43.8V99.8h-43.8v287.93zm-63.56-160.01c0 11.52-5.32 16.87-16.37 16.87h-18.01V138.46h18.01c11.05 0 16.37 5.35 16.37 16.86v72.4zM283.64 99.8h-68.77v287.94h43.8V283.25h24.97c35.61 0 53.21-17.68 53.21-53.47v-76.51c0-35.79-17.6-53.47-53.21-53.47"/><path d="M198.8,648.08h250.74l-127.98,42.21L198.8,648.08z" fill-rule="evenodd"/></g></g><path d="M194.58 798.5l75.85.01v22.33h-25.68v77.31h-24.58v-77.31h-25.59V798.5zM161.6 832h22.36c0-8.86 1.01-18.56-16.18-28.85-13.37-8.01-33.01-4.05-40.55.18-12.93 7.26-16.27 17.1-15.98 27.69.47 17.6 13.39 21.54 25.48 26.04 7.85 2.92 16.72 4.68 22.47 9.96 2.2 2.03 3.12 6.01-1.66 7.86-6.81 2.62-14.1 2.92-21.68-1.95-2.6-1.67-3.45-4.29-3.45-7.11l-23.67-.3c0 8.2 1.48 14.94 6.67 20.82 7.47 8.46 17.71 10.97 28.83 11.74 13.93.97 22.09-1.47 28.83-5.82 6.85-4.43 11.19-11.17 12.47-20.33.78-5.56 1.39-11.01-4.99-18.95-5.72-5.53-15.51-11-27.9-14.79-5.94-2.25-14.71-4.67-16.27-8.49-1.61-3.29.87-6.58 2.96-7.79 3.39-1.9 8.29-1.92 12.57-.3 4.96 1.87 9.69 5.5 9.69 10.39h0zm118.88-1.39l-.22 32.81c0 45.55 78.9 46.81 78.9 0v-32.81c0-44.56-78.68-41.2-78.68 0zm39.29-11.54c7.68.13 15.35 5.11 15.35 14.56v28.75c0 18.64-30.71 18.33-30.71 0v-28.75c.01-9.96 7.68-14.69 15.36-14.56h0zm58.68-20.78v99.55h24.2v-35.51h9.43l19.3 35.38h24.68v-8.86l-17.82-29.87c25.14-14.52 19.01-60.58-12.84-60.58l-46.95-.11zm24.26 21.28l13.72.26c15.63 0 14.77 20.9 0 21h-13.72v-21.26zm69.79-21.51l63.38-.07v21.06h-39.36v18.51h33.63v20.89h-34v18.48h41.02v20.64H472.5v-99.51z" fill="#fff"/></svg>
