<?xml version="1.0" encoding="utf-8"?>
<!-- Generator: Adobe Illustrator 24.0.2, SVG Export Plug-In . SVG Version: 6.00 Build 0)  -->
<svg version="1.1"
	 id="svg15" xmlns:cc="http://creativecommons.org/ns#" xmlns:dc="http://purl.org/dc/elements/1.1/" xmlns:inkscape="http://www.inkscape.org/namespaces/inkscape" xmlns:rdf="http://www.w3.org/1999/02/22-rdf-syntax-ns#" xmlns:sodipodi="http://sodipodi.sourceforge.net/DTD/sodipodi-0.dtd" xmlns:svg="http://www.w3.org/2000/svg"
	 xmlns="http://www.w3.org/2000/svg" xmlns:xlink="http://www.w3.org/1999/xlink" x="0px" y="0px" viewBox="0 0 378 429"
	 style="enable-background:new 0 0 378 429;" xml:space="preserve">
<style type="text/css">
	.st0{fill:#FFFFFF;}
</style>
<path id="path21" sodipodi:nodetypes="sccccccccccccccccccccscccscccccccccccccccccccc" class="st0" d="M152.27,1.86
	c-1.46,0-2.93,0.04-4.39,0.13c-44.34,2.68-79.59,44.98-78.72,94.48c0.08,4.42,0.45,8.81,1.11,13.15L0.78,123.69L0,367.15
	l305.31,61.06l75.15-27.4l-2.35-310.79l-39.14-7.83l-32.88-20.35l-39.11,7.92c-9.63-31.39-33.81-56.56-65.11-56.61
	c7.62,5.92,11.98,11.13,14.74,15.85c22.48,6.22,30.99,24.13,37.73,43.32L118.06,99.93c5.28-42.02,31.17-69.94,57.79-76.1
	l-17.17-5.03c-24.2,9.92-51.97,42.52-50.98,83.22l-28.89,5.85c-0.62-3.98-0.97-8.01-1.04-12.06c-0.77-43.84,30.18-81.3,69.11-83.67
	c1.37-0.08,2.74-0.12,4.11-0.12c34.71,0.17,63.27,28.82,67.31,67.53l10.82-2.21C224.2,33.87,191.65,1.89,152.27,1.86z
	 M225.85,169.49v78.09h-87.68v-65.56L225.85,169.49z M135.43,182.4v65.17h-68.5v-55.39L135.43,182.4z M66.93,250.31h68.5v65.9
	l-68.5-10.12V250.31z M138.17,250.31h87.68v79.26l-87.68-12.96V250.31z"/>
<sodipodi:namedview  bordercolor="#666666" borderopacity="1" gridtolerance="10" guidetolerance="10" id="namedview17" inkscape:current-layer="svg15" inkscape:cx="659.39397" inkscape:cy="31.830776" inkscape:pageopacity="0" inkscape:pageshadow="2" inkscape:window-height="715" inkscape:window-maximized="1" inkscape:window-width="1366" inkscape:window-x="-8" inkscape:window-y="-8" inkscape:zoom="0.63869464" objecttolerance="10" pagecolor="#ffffff" showgrid="false">
	</sodipodi:namedview>
</svg>
