<?xml version="1.0" encoding="utf-8"?>
<!-- Generator: Adobe Illustrator 24.0.2, SVG Export Plug-In . SVG Version: 6.00 Build 0)  -->
<svg version="1.1" id="Layer_1" xmlns="http://www.w3.org/2000/svg" xmlns:xlink="http://www.w3.org/1999/xlink" x="0px" y="0px"
	 viewBox="0 0 293.61 89.33" style="enable-background:new 0 0 293.61 89.33;" xml:space="preserve">
<style type="text/css">
	.st0{fill:#FFFFFF;}
</style>
<g>
	<path class="st0" d="M44.24,0.6C21,0.6,1.96,18.52,0.15,41.29l23.71,9.8c2.01-1.37,4.44-2.18,7.05-2.18c0.23,0,0.47,0.01,0.7,0.02
		l10.54-15.28c0-0.07,0-0.14,0-0.22c0-9.2,7.48-16.68,16.68-16.68c9.2,0,16.68,7.48,16.68,16.68s-7.48,16.68-16.68,16.68
		c-0.13,0-0.25,0-0.38-0.01L43.42,60.84c0.01,0.19,0.01,0.39,0.01,0.59c0,6.91-5.62,12.52-12.52,12.52
		c-6.06,0-11.13-4.33-12.28-10.06L1.68,56.89c5.25,18.57,22.31,32.18,42.56,32.18c24.43,0,44.24-19.81,44.24-44.24
		C88.47,20.41,68.67,0.6,44.24,0.6"/>
	<path class="st0" d="M27.88,67.72l-5.43-2.25c0.96,2,2.63,3.68,4.84,4.61c4.78,1.99,10.3-0.28,12.29-5.06
		c0.97-2.31,0.97-4.87,0.01-7.19c-0.96-2.32-2.76-4.13-5.07-5.1c-2.3-0.96-4.76-0.92-6.93-0.1l5.61,2.32
		c3.53,1.47,5.19,5.52,3.72,9.05C35.46,67.53,31.4,69.19,27.88,67.72"/>
	<path class="st0" d="M69.95,33.44c0-6.13-4.99-11.12-11.12-11.12c-6.13,0-11.12,4.99-11.12,11.12c0,6.13,4.99,11.12,11.12,11.12
		C64.96,44.55,69.95,39.56,69.95,33.44 M50.5,33.42c0-4.61,3.74-8.35,8.35-8.35s8.35,3.74,8.35,8.35s-3.74,8.35-8.35,8.35
		S50.5,38.03,50.5,33.42"/>
	<path class="st0" d="M135.72,30.87l-2.96,5.21c-2.28-1.6-5.38-2.56-8.08-2.56c-3.09,0-5,1.28-5,3.57c0,2.78,3.39,3.43,8.44,5.24
		c5.42,1.92,8.54,4.17,8.54,9.13c0,6.79-5.34,10.61-13.02,10.61c-3.74,0-8.26-0.97-11.73-3.08l2.16-5.78
		c2.82,1.49,6.19,2.37,9.2,2.37c4.05,0,5.98-1.49,5.98-3.7c0-2.53-2.94-3.29-7.68-4.86c-5.4-1.8-9.15-4.17-9.15-9.67
		c0-6.2,4.96-9.76,12.1-9.76C129.5,27.6,133.5,29.18,135.72,30.87"/>
	<polygon class="st0" points="158.89,34.16 158.89,61.5 151.91,61.5 151.91,34.16 141.78,34.16 141.78,28.17 168.99,28.17 
		168.99,34.16 	"/>
	<polygon class="st0" points="183.7,34.14 183.7,41.65 197.06,41.65 197.06,47.64 183.7,47.64 183.7,55.46 199.2,55.46 199.2,61.5 
		176.72,61.5 176.72,28.17 199.2,28.17 199.2,34.14 	"/>
	<path class="st0" d="M214.77,55.03l-2.21,6.47h-7.32l12.49-33.33h7.02l12.85,33.32h-7.56l-2.25-6.47L214.77,55.03L214.77,55.03z
		 M221.22,36.13l-4.55,13.34h9.2L221.22,36.13z"/>
	<polygon class="st0" points="273.44,41.06 264.32,60.53 260.38,60.53 251.41,41.23 251.41,61.5 244.72,61.5 244.72,28.17 
		251.39,28.17 262.59,52.23 273.39,28.17 280.12,28.17 280.12,61.5 273.44,61.5 	"/>
	<path class="st0" d="M293.61,32.38c0,2.86-2.15,4.65-4.61,4.65c-2.47,0-4.62-1.78-4.62-4.65c0-2.86,2.15-4.64,4.62-4.64
		C291.47,27.74,293.61,29.52,293.61,32.38 M285.15,32.38c0,2.4,1.73,3.9,3.85,3.9c2.11,0,3.83-1.51,3.83-3.9
		c0-2.4-1.72-3.89-3.83-3.89C286.89,28.49,285.15,29.99,285.15,32.38 M289.07,30.01c1.2,0,1.6,0.63,1.6,1.32
		c0,0.63-0.37,1.05-0.82,1.26l1.07,2.01h-0.88l-0.9-1.78h-0.93v1.78h-0.73v-4.58H289.07z M288.21,32.14h0.81
		c0.53,0,0.84-0.33,0.84-0.75c0-0.42-0.22-0.69-0.84-0.69h-0.81L288.21,32.14L288.21,32.14z"/>
</g>
</svg>
