<svg width="35" height="32" viewBox="0 0 35 32" fill="none" xmlns="http://www.w3.org/2000/svg">
<path d="M31.9118 32H3.08824C2.26918 32 1.48368 31.6737 0.904523 31.093C0.325367 30.5122 0 29.7245 0 28.9032L0 3.09677C0 2.27546 0.325367 1.48778 0.904523 0.907024C1.48368 0.326266 2.26918 0 3.08824 0L31.9118 0C32.7308 0 33.5163 0.326266 34.0955 0.907024C34.6746 1.48778 35 2.27546 35 3.09677V28.9032C35 29.7245 34.6746 30.5122 34.0955 31.093C33.5163 31.6737 32.7308 32 31.9118 32ZM4.11765 25.2903C4.11765 25.701 4.28033 26.0948 4.56991 26.3852C4.85949 26.6756 5.25224 26.8387 5.66177 26.8387H11.3235V24.7742H6.69118C6.55467 24.7742 6.42375 24.7198 6.32722 24.623C6.2307 24.5262 6.17647 24.3949 6.17647 24.2581V21.1613C6.17647 21.0244 6.2307 20.8931 6.32722 20.7963C6.42375 20.6995 6.55467 20.6452 6.69118 20.6452H11.3235V18.5806H5.66177C5.25224 18.5806 4.85949 18.7438 4.56991 19.0342C4.28033 19.3245 4.11765 19.7184 4.11765 20.129V25.2903ZM12.3529 6.70968C12.3529 6.29902 12.1903 5.90518 11.9007 5.6148C11.6111 5.32442 11.2183 5.16129 10.8088 5.16129H5.66177C5.25224 5.16129 4.85949 5.32442 4.56991 5.6148C4.28033 5.90518 4.11765 6.29902 4.11765 6.70968V11.871C4.11765 12.2816 4.28033 12.6755 4.56991 12.9658C4.85949 13.2562 5.25224 13.4194 5.66177 13.4194H9.26471V11.3548H6.69118C6.55467 11.3548 6.42375 11.3005 6.32722 11.2037C6.2307 11.1069 6.17647 10.9756 6.17647 10.8387V7.74194C6.17647 7.60505 6.2307 7.47377 6.32722 7.37698C6.42375 7.28018 6.55467 7.22581 6.69118 7.22581H9.77941C9.91592 7.22581 10.0468 7.28018 10.1434 7.37698C10.2399 7.47377 10.2941 7.60505 10.2941 7.74194V13.9355C10.2941 14.0724 10.2399 14.2036 10.1434 14.3004C10.0468 14.3972 9.91592 14.4516 9.77941 14.4516H4.11765V16.5161H10.8088C11.2183 16.5161 11.6111 16.353 11.9007 16.0626C12.1903 15.7722 12.3529 15.3784 12.3529 14.9677V6.70968ZM12.3529 20.129V25.2903C12.3529 25.701 12.5156 26.0948 12.8052 26.3852C13.0948 26.6756 13.4875 26.8387 13.8971 26.8387H19.0441C19.4536 26.8387 19.8464 26.6756 20.136 26.3852C20.4256 26.0948 20.5882 25.701 20.5882 25.2903V20.129C20.5882 19.7184 20.4256 19.3245 20.136 19.0342C19.8464 18.7438 19.4536 18.5806 19.0441 18.5806H13.8971C13.4875 18.5806 13.0948 18.7438 12.8052 19.0342C12.5156 19.3245 12.3529 19.7184 12.3529 20.129ZM21.6176 6.70968C21.6176 6.29902 21.455 5.90518 21.1654 5.6148C20.8758 5.32442 20.4831 5.16129 20.0735 5.16129H14.9265C14.5169 5.16129 14.1242 5.32442 13.8346 5.6148C13.545 5.90518 13.3824 6.29902 13.3824 6.70968V11.871C13.3824 12.2816 13.545 12.6755 13.8346 12.9658C14.1242 13.2562 14.5169 13.4194 14.9265 13.4194H20.0735C20.4831 13.4194 20.8758 13.2562 21.1654 12.9658C21.455 12.6755 21.6176 12.2816 21.6176 11.871V6.70968ZM30.8824 6.70968C30.8824 6.29902 30.7197 5.90518 30.4301 5.6148C30.1405 5.32442 29.7478 5.16129 29.3382 5.16129H24.1912C23.7817 5.16129 23.3889 5.32442 23.0993 5.6148C22.8097 5.90518 22.6471 6.29902 22.6471 6.70968V11.871C22.6471 12.2816 22.8097 12.6755 23.0993 12.9658C23.3889 13.2562 23.7817 13.4194 24.1912 13.4194H27.7941V11.3548H25.2206C25.0841 11.3548 24.9532 11.3005 24.8566 11.2037C24.7601 11.1069 24.7059 10.9756 24.7059 10.8387V7.74194C24.7059 7.60505 24.7601 7.47377 24.8566 7.37698C24.9532 7.28018 25.0841 7.22581 25.2206 7.22581H28.3088C28.4453 7.22581 28.5763 7.28018 28.6728 7.37698C28.7693 7.47377 28.8235 7.60505 28.8235 7.74194V13.9355C28.8235 14.0724 28.7693 14.2036 28.6728 14.3004C28.5763 14.3972 28.4453 14.4516 28.3088 14.4516H22.6471V16.5161H29.3382C29.7478 16.5161 30.1405 16.353 30.4301 16.0626C30.7197 15.7722 30.8824 15.3784 30.8824 14.9677V6.70968ZM30.8824 18.5806H23.1618C22.7522 18.5806 22.3595 18.7438 22.0699 19.0342C21.7803 19.3245 21.6176 19.7184 21.6176 20.129V26.8387H23.6765V21.1613C23.6765 21.0244 23.7307 20.8931 23.8272 20.7963C23.9237 20.6995 24.0547 20.6452 24.1912 20.6452H25.2206V26.8387H27.2794V20.6452H28.8235V26.8387H30.8824V18.5806ZM19.0441 11.3548H15.9559C15.8194 11.3548 15.6885 11.3005 15.5919 11.2037C15.4954 11.1069 15.4412 10.9756 15.4412 10.8387V7.74194C15.4412 7.60505 15.4954 7.47377 15.5919 7.37698C15.6885 7.28018 15.8194 7.22581 15.9559 7.22581H19.0441C19.1806 7.22581 19.3115 7.28018 19.4081 7.37698C19.5046 7.47377 19.5588 7.60505 19.5588 7.74194V10.8387C19.5588 10.9756 19.5046 11.1069 19.4081 11.2037C19.3115 11.3005 19.1806 11.3548 19.0441 11.3548ZM14.9265 20.6452H18.0147C18.1512 20.6452 18.2821 20.6995 18.3787 20.7963C18.4752 20.8931 18.5294 21.0244 18.5294 21.1613V24.2581C18.5294 24.3949 18.4752 24.5262 18.3787 24.623C18.2821 24.7198 18.1512 24.7742 18.0147 24.7742H14.9265C14.79 24.7742 14.659 24.7198 14.5625 24.623C14.466 24.5262 14.4118 24.3949 14.4118 24.2581V21.1613C14.4118 21.0244 14.466 20.8931 14.5625 20.7963C14.659 20.6995 14.79 20.6452 14.9265 20.6452Z" fill="#ffffff"/>
</svg>
