<svg width="43" height="33" viewBox="0 0 43 33" fill="none" xmlns="http://www.w3.org/2000/svg">
<path d="M21.6446 0.000159671C21.0347 -0.000715329 20.4262 0.00202217 19.8164 0.00797217C16.5395 0.0647372 13.2424 0.144346 9.99613 0.597816C8.87585 1.16727 8.30132 2.41741 7.60161 3.40641C6.33652 5.52328 5.74784 7.95577 5.05082 10.2931C4.75839 10.611 4.55843 11.0534 4.23051 11.3205C3.93719 11.2496 4.25174 10.588 4.17973 10.2736C4.35144 9.30251 3.18913 8.71126 2.37894 9.08219C1.55896 9.39895 0.316357 9.48283 4.48809e-05 10.4494C-0.00820512 11.5454 1.12239 12.366 2.17973 12.2306C2.66639 12.3101 2.87258 12.9165 3.17192 13.2502C3.19734 15.0204 2.79503 16.795 2.89457 18.5783C2.94569 19.7066 2.83273 20.8935 3.17973 21.9767C3.27746 22.0797 3.37128 22.1096 3.46098 22.0978C3.44139 22.1624 3.42582 22.2287 3.42582 22.297V31.4845C3.42582 31.8853 3.79064 32.2502 4.19144 32.2502H7.25395C7.65476 32.2499 8.01957 31.8853 8.01957 31.4845V28.3166H34.9063V31.4845C34.9063 31.8853 35.2711 32.2499 35.6719 32.2502H38.7344C39.1352 32.2499 39.4998 31.8853 39.5 31.4845V22.297C39.5 22.2245 39.4869 22.1543 39.4649 22.0861C40.0157 22.0891 39.8766 21.201 39.9649 20.8048C40.0582 18.4254 40.0517 16.0042 39.6797 13.6603C39.7425 13.0929 40.24 12.5688 40.6602 12.2463C41.672 12.2961 42.7899 11.7156 42.9454 10.633C42.8022 9.62752 41.5414 9.42227 40.75 9.13297C40.0339 8.83672 38.8182 8.97539 38.7461 9.92985C38.6702 10.3645 38.9508 11.0413 38.7579 11.3283C38.3131 11.1423 38.136 10.5645 37.836 10.2033C37.2254 8.06786 36.6712 5.85542 35.6251 3.87125C34.9036 2.7173 34.1758 1.44939 33.0626 0.629066C31.1327 0.222501 29.1021 0.31782 27.1329 0.129066C25.3055 0.0407022 23.4741 0.00280342 21.6446 0.000159671ZM21.4922 0.988441C25.1007 0.988377 28.7096 0.999978 28.9922 1.0275C29.2291 1.05055 29.5352 1.11673 29.6797 1.17203C29.9661 1.2816 30.0756 1.39744 30.7188 2.25407C31.3583 3.10571 31.5574 3.32183 32.3008 3.98453C33.5725 5.11819 33.7051 5.30384 34.0704 6.46891C34.1861 6.83813 34.5297 7.92112 34.836 8.87907C35.1422 9.83701 35.3863 10.6749 35.3789 10.7384L35.3672 10.8556L32.2774 10.883C26.3186 10.9364 19.4847 10.9488 15.4727 10.9181C13.2451 10.9011 10.5609 10.8865 9.50786 10.883C7.81986 10.8773 7.59002 10.8663 7.56645 10.8048C7.55175 10.7665 7.76603 10.0266 8.04301 9.16032C8.32 8.29406 8.66568 7.20535 8.81254 6.73844C9.24513 5.36316 9.39304 5.12668 10.3047 4.31266C11.2442 3.47385 11.6329 3.06578 12.1758 2.35172C12.4753 1.95789 12.7961 1.54917 12.8907 1.44547C13.1111 1.20385 13.4306 1.08607 13.9922 1.03141C14.275 1.00389 17.8838 0.988503 21.4922 0.988441ZM6.37504 12.4689C8.29307 12.8708 10.0423 14.0789 11.7969 14.9455C12.792 15.3211 14.1211 16.3434 13.3399 17.5158C12.0222 18.4467 10.1747 17.828 8.66801 17.7892C7.47001 17.4464 5.58592 17.5622 5.00786 16.2423C4.93279 14.9959 4.64556 12.6676 6.37504 12.4689ZM36.336 12.5392C38.2847 12.469 38.6576 15.7162 37.4297 16.7502C35.4909 18.0004 32.9594 17.8773 30.7266 17.8947C29.6537 18.0635 28.6086 16.7543 29.6993 15.9884C31.6375 14.4465 33.9421 13.2004 36.336 12.5392Z" fill="#E3C18A"/>
</svg>
